<?xml version="1.0" standalone="no"?>
<!DOCTYPE svg PUBLIC "-//W3C//DTD SVG 1.1//EN" "http://www.w3.org/Graphics/SVG/1.1/DTD/svg11.dtd" >
<svg xmlns="http://www.w3.org/2000/svg">
<metadata></metadata>
<defs>
<font id="monologue_black_ssiblack" horiz-adv-x="606" >
<font-face units-per-em="2048" ascent="1638" descent="-410" />
<missing-glyph horiz-adv-x="500" />
<glyph horiz-adv-x="2048" />
<glyph horiz-adv-x="2048" />
<glyph unicode="&#xd;" horiz-adv-x="0" />
<glyph unicode=" " />
<glyph unicode="!" d="M111 152q0 88 53.5 137t138.5 49q86 0 139.5 -49t53.5 -137q0 -81 -52 -134t-141 -53q-88 0 -140 53t-52 134zM141 1591h324l-25 -1128h-274z" />
<glyph unicode="&#x22;" horiz-adv-x="682" d="M25 1493q0 54 36 91.5t93 37.5q58 0 93.5 -37.5t35.5 -91.5q0 -126 -37 -561q-4 -61 -27.5 -85t-64.5 -24q-26 0 -45.5 9.5t-32 35t-15.5 64.5q-9 103 -22.5 302t-13.5 259zM399 1493q0 53 35.5 91t93.5 38t93.5 -37.5t35.5 -91.5q0 -60 -13.5 -259t-22.5 -302 q-4 -60 -27.5 -84.5t-65.5 -24.5q-41 0 -64.5 24t-27.5 85q-37 435 -37 561z" />
<glyph unicode="#" horiz-adv-x="1212" d="M100 420v178h201l33 252h-174v178h198l56 420h184l-55 -420h209l55 420h184l-55 -420h176v-178h-201l-32 -252h174v-178h-199l-55 -420h-185l56 420h-209l-58 -420h-184l57 420h-176zM483 598h209l35 252h-209z" />
<glyph unicode="$" horiz-adv-x="1212" d="M35 1030q0 125 56 224t160.5 157t250.5 72v278h196v-278q190 0 398 -64v-354h-246v164q-83 31 -152 31v-379q115 -16 200.5 -44t147.5 -75.5t97 -125t35 -190.5q0 -153 -76 -259.5t-187 -157.5t-217 -54v-276h-196v276q-132 1 -258 20t-203 46v389h287v-188 q93 -26 174 -31v405q-150 20 -254 67.5t-158.5 132t-54.5 214.5zM322 1071q0 -126 180 -160v349q-86 -15 -133 -65.5t-47 -123.5zM698 211q86 6 147.5 62.5t61.5 140.5q0 147 -209 170v-373z" />
<glyph unicode="%" horiz-adv-x="1669" d="M57 1149q0 103 47.5 179t126.5 115.5t177 39.5q116 0 192.5 -47t112 -122t35.5 -157q0 -160 -101 -251t-250 -91q-166 0 -253 87.5t-87 246.5zM266 1143q0 -70 32 -116t101 -46q75 0 107.5 52t32.5 122q0 73 -32.5 117.5t-100.5 44.5q-72 0 -106 -48.5t-34 -125.5z M322 -29l862 1598l164 -92l-863 -1598zM922 297q0 156 101 246t249 90q116 0 193 -47.5t112 -122.5t35 -158q0 -107 -47 -184t-127 -116.5t-176 -39.5q-112 0 -188.5 39.5t-114 114t-37.5 178.5zM1130 291q0 -70 32 -115t102 -45q74 0 106.5 51.5t32.5 120.5q0 74 -32.5 119 t-100.5 45q-72 0 -106 -49t-34 -127z" />
<glyph unicode="&#x26;" horiz-adv-x="1518" d="M96 393q0 94 34.5 168.5t97 133.5t153.5 112q-98 109 -135 178t-37 148q0 96 52 173t147 122t215 45q119 0 202 -42t123.5 -114t40.5 -160q0 -99 -62.5 -190t-205.5 -176l321 -340q33 45 55.5 118.5t22.5 139.5h-127v198h459v-198h-111q-5 -82 -22 -152.5t-49.5 -136.5 t-77.5 -123q70 -86 182 -86q9 0 72 6v-213q-18 0 -55 -2t-54 -2q-82 0 -131.5 9t-88 34.5t-79.5 75.5q-98 -86 -195 -120t-237 -34q-147 0 -264 53.5t-181.5 150t-64.5 224.5zM367 420q0 -53 32.5 -107.5t99.5 -89.5t165 -35q120 0 223 86l-361 379q-75 -40 -117 -102 t-42 -131zM455 1133q0 -43 33 -92.5t92 -98.5q71 30 123.5 82.5t52.5 120.5q0 64 -42.5 96.5t-105.5 32.5q-62 0 -107.5 -35.5t-45.5 -105.5z" />
<glyph unicode="'" horiz-adv-x="455" d="M98 1493q0 54 36 91.5t93 37.5q58 0 93.5 -37.5t35.5 -91.5q0 -47 -7 -163.5t-18 -251t-12 -146.5q-4 -61 -27 -85t-65 -24q-41 0 -64.5 24t-27.5 85q-37 435 -37 561z" />
<glyph unicode="(" d="M68 506q0 157 22.5 295.5t72.5 282.5t126 281t182 280l195 -123q-299 -465 -299 -1028q0 -153 25 -304t86 -309.5t165 -333.5l-209 -120q-104 154 -173 290.5t-112 271t-62 262.5t-19 255z" />
<glyph unicode=")" d="M-59 -451q76 118 132.5 243.5t93.5 255.5t55 262t18 268q0 239 -61.5 465t-215.5 481l209 121q104 -150 175 -290t112 -267.5t60.5 -257t19.5 -265.5q0 -157 -23 -300t-70.5 -277t-126 -276t-184.5 -285z" />
<glyph unicode="*" horiz-adv-x="758" d="M59 1352l93 164l176 -164l4 4l-47 235h188l-47 -235l4 -4l176 164l92 -164l-225 -76v-4l223 -76l-94 -164l-172 164l-4 -4l45 -238h-184l45 238l-4 4l-172 -164l-95 164l224 76v4z" />
<glyph unicode="+" horiz-adv-x="1229" d="M96 412v223h408v412h221v-412h408v-223h-408v-412h-221v412h-408z" />
<glyph unicode="," d="M45 -334q95 77 129.5 136.5t34.5 121.5q0 45 -28 83.5t-56.5 77t-28.5 83.5q0 77 49.5 123.5t124.5 46.5q71 0 122.5 -40.5t77.5 -106t26 -140.5q0 -305 -318 -512z" />
<glyph unicode="-" horiz-adv-x="872" d="M137 492v249h598v-249h-598z" />
<glyph unicode="." d="M111 152q0 88 53.5 137t138.5 49q86 0 139.5 -49t53.5 -137q0 -81 -52 -134t-141 -53q-88 0 -140 53t-52 134z" />
<glyph unicode="/" horiz-adv-x="721" d="M-45 -98l604 1720l207 -76l-604 -1720z" />
<glyph unicode="0" horiz-adv-x="1212" d="M59 684q0 286 78.5 465t207.5 256.5t288 77.5q240 0 380 -193.5t140 -564.5q0 -248 -76.5 -419t-205.5 -256t-283 -85q-150 0 -268.5 67t-189.5 228.5t-71 423.5zM371 709q0 -140 15 -237t44.5 -157.5t73 -87t104.5 -26.5q65 0 116.5 46t84.5 162t33 316 q0 207 -32.5 322.5t-83 157.5t-114.5 42q-68 0 -122 -49.5t-86.5 -171t-32.5 -317.5z" />
<glyph unicode="1" horiz-adv-x="1212" d="M84 1141l516 307h219v-1237h281v-211h-856v211h276v965q-56 -49 -71 -60l-248 -166z" />
<glyph unicode="2" horiz-adv-x="1212" d="M49 0v199q76 52 199 152t247.5 222.5t210 248.5t85.5 227q0 69 -31 113.5t-77 64.5t-93 20q-108 0 -171.5 -68.5t-74.5 -174.5h-287q0 100 50.5 210t173.5 189.5t321 79.5q119 0 231 -42.5t184.5 -138t72.5 -239.5q0 -105 -49.5 -212t-130 -203t-192.5 -198.5 t-261 -222.5v-4q102 13 147 13h529v-236h-1084z" />
<glyph unicode="3" horiz-adv-x="1212" d="M45 1049q0 73 33.5 151t100 142t167.5 102.5t232 38.5q134 0 240.5 -45.5t165 -129t58.5 -192.5q0 -85 -37.5 -160t-104 -124.5t-152.5 -61.5v-4q94 -2 175 -42t129 -118t48 -190q0 -71 -24 -144.5t-89 -144.5t-188 -116.5t-307 -45.5q-139 0 -244 21t-199 65v281 q209 -119 420 -119q104 0 180 25.5t114 74t38 117.5q0 85 -60.5 133t-152 64t-209.5 16v199q126 0 207.5 36t119 94t37.5 122q0 75 -50.5 120.5t-133.5 45.5q-62 0 -113.5 -26.5t-82.5 -75.5t-31 -109h-287z" />
<glyph unicode="4" horiz-adv-x="1212" d="M31 389v223l571 836h371v-836h250v-223h-250v-178h141v-211h-567v211h139v178h-655zM303 606q40 6 80 6h303v572h-4z" />
<glyph unicode="5" horiz-adv-x="1212" d="M117 29v235q52 -24 165 -43.5t201 -19.5q110 0 180.5 34t103 89.5t32.5 124.5q0 100 -63 158.5t-204 84t-378 27.5v729h882v-211h-596v-293q158 0 305.5 -38t250 -140.5t102.5 -278.5q0 -159 -71 -277t-209 -181.5t-326 -63.5q-192 0 -375 64z" />
<glyph unicode="6" horiz-adv-x="1212" d="M90 651q0 182 45 335t136 264.5t229.5 172t316.5 60.5q173 0 295 -41l-18 -225q-155 55 -260 55q-150 0 -246 -68.5t-142.5 -173.5t-62.5 -229l4 -4q129 141 334 141q85 0 160.5 -28.5t137 -85.5t97 -142t35.5 -197q0 -128 -52.5 -247t-166 -196t-283.5 -77 q-250 0 -404.5 174.5t-154.5 511.5zM389 600q0 -210 72.5 -304.5t189.5 -94.5q128 0 179 86.5t51 175.5q0 79 -33 135.5t-89 85.5t-122 29q-69 0 -134 -30.5t-114 -82.5z" />
<glyph unicode="7" horiz-adv-x="1212" d="M102 1212v236h1010v-182l-504 -1020q-64 -131 -145 -246h-324q90 129 160 260l436 832q38 72 82 120h-715z" />
<glyph unicode="8" horiz-adv-x="1212" d="M49 346q0 90 39.5 165.5t117 132t185.5 89.5v4q-98 29 -162.5 83t-94.5 124t-30 152t34.5 152t103.5 123.5t165 82.5t224 29q131 0 228 -33t153.5 -85t83 -116t26.5 -133q0 -140 -70 -220t-218 -140v-4q69 -18 130.5 -53t106 -83t68.5 -108t24 -131q0 -151 -78 -242.5 t-207 -130.5t-288 -39q-141 0 -262.5 36t-200 121t-78.5 224zM348 381q0 -52 29.5 -96t87 -70.5t141.5 -26.5q124 0 197.5 57t73.5 138q0 75 -61.5 130t-219.5 110q-122 -45 -185 -105.5t-63 -136.5zM391 1083q0 -68 53.5 -118.5t171.5 -102.5q125 65 172.5 113.5 t47.5 118.5q0 82 -59.5 124t-164.5 42q-100 0 -160.5 -49t-60.5 -128z" />
<glyph unicode="9" horiz-adv-x="1212" d="M61 963q0 92 28.5 184t90.5 169t158 122t225 45q122 0 224.5 -42.5t177 -126.5t116 -215t41.5 -302q0 -182 -44 -333.5t-136 -265t-229.5 -173.5t-317.5 -60q-81 0 -148.5 8t-146.5 33l19 225q155 -55 260 -55q114 0 198 42t134 108t79.5 152t38.5 169l-4 4 q-129 -141 -333 -141q-177 0 -304 119t-127 334zM332 985q0 -79 32.5 -135t88.5 -85.5t122 -29.5q70 0 135.5 31t112.5 82q0 144 -35 232.5t-93.5 127.5t-133.5 39q-127 0 -178 -86t-51 -176z" />
<glyph unicode=":" d="M111 152q0 88 53.5 137t138.5 49q86 0 139.5 -49t53.5 -137q0 -81 -52 -134t-141 -53q-88 0 -140 53t-52 134zM111 920q0 89 54 137.5t138 48.5q85 0 139 -48.5t54 -137.5q0 -81 -52 -133t-141 -52q-88 0 -140 52t-52 133z" />
<glyph unicode=";" d="M45 -334q95 77 129.5 136.5t34.5 121.5q0 45 -28 83.5t-56.5 77t-28.5 83.5q0 77 49.5 123.5t124.5 46.5q71 0 122.5 -40.5t77.5 -106t26 -140.5q0 -305 -318 -512zM111 920q0 89 54 137.5t138 48.5q85 0 139 -48.5t54 -137.5q0 -81 -52 -133t-141 -52q-88 0 -140 52 t-52 133z" />
<glyph unicode="&#x3c;" horiz-adv-x="1229" d="M96 428v190l1037 445v-223l-791 -316l791 -317v-223z" />
<glyph unicode="=" horiz-adv-x="1229" d="M96 213v223h1037v-223h-1037zM96 610v224h1037v-224h-1037z" />
<glyph unicode="&#x3e;" horiz-adv-x="1229" d="M96 -16v223l791 317l-791 316v223l1037 -445v-190z" />
<glyph unicode="?" horiz-adv-x="985" d="M121 1577q192 45 328 45q146 0 247 -38t156.5 -96.5t78.5 -124.5t23 -126q0 -144 -68.5 -234.5t-164 -149.5t-187.5 -118.5t-92 -122.5q0 -34 45 -108l-258 -76q-35 51 -54 104.5t-19 100.5q0 100 61.5 160t182.5 127t182 124t61 154q0 63 -34.5 105.5t-92.5 62.5 t-129 20q-26 0 -74 -4t-92 -12.5t-90 -21.5zM139 152q0 88 53.5 137t139.5 49q84 0 138 -49t54 -137q0 -81 -51 -134t-141 -53q-89 0 -141 53.5t-52 133.5z" />
<glyph unicode="@" horiz-adv-x="1638" d="M78 727q0 210 97 379.5t274 268t403 98.5q153 0 282.5 -44.5t224.5 -126t148.5 -196t53.5 -250.5q0 -185 -82 -317t-200 -196t-224 -64q-72 0 -107 33.5t-37 86.5h-4q-44 -51 -108 -85.5t-137 -34.5q-77 0 -140 40.5t-100 116t-37 170.5q0 140 62 266t165.5 202.5 t216.5 76.5q75 0 134.5 -40.5t97.5 -117.5l37 117h145l-139 -504q-33 -115 -33 -139q0 -45 68 -45q39 0 81 32t78 89.5t57 131.5t21 156q0 138 -72 246.5t-192 169t-260 60.5q-167 0 -303 -81t-211.5 -217.5t-75.5 -291.5q0 -127 45.5 -234t125.5 -183.5t184.5 -117.5 t218.5 -41q317 0 491 174h168q-53 -99 -146.5 -176.5t-225 -120.5t-287.5 -43t-294.5 51t-243.5 149.5t-162.5 238.5t-57.5 313zM557 633q0 -93 41.5 -147t110.5 -54q80 0 147.5 60.5t105 148t37.5 164.5q0 192 -161 192q-80 0 -144 -55.5t-100.5 -141.5t-36.5 -167z" />
<glyph unicode="A" horiz-adv-x="1593" d="M29 0v211h114l504 1237h330l473 -1237h115v-211h-570v211h117l-92 276h-494l-102 -276h137v-211h-532zM610 711h334l-102 303q-39 106 -54 211h-4q-20 -94 -63 -211z" />
<glyph unicode="B" horiz-adv-x="1327" d="M57 1237v211h551q108 0 177.5 -4.5t124.5 -19.5t100 -44q64 -42 106.5 -114t42.5 -179q0 -157 -97 -241t-196 -84v-4q158 0 268.5 -95t110.5 -264q0 -163 -132 -281t-406 -118h-637v211h141v1026h-154zM510 211h162q125 0 187.5 59t62.5 152q0 58 -28 103t-81.5 70.5 t-128.5 25.5h-174v-410zM510 856h139q96 0 159.5 52.5t63.5 146.5q0 182 -219 182h-143v-381z" />
<glyph unicode="C" horiz-adv-x="1403" d="M70 713q0 204 86.5 377t262.5 278t429 105q128 0 244.5 -21.5t228.5 -62.5v-404h-258v232q-96 32 -203 32q-124 0 -214 -41.5t-146 -114.5t-81.5 -165.5t-25.5 -194.5q0 -128 43 -245.5t151.5 -197t289.5 -79.5q103 0 167 20l13 263h258l-12 -447q-114 -38 -225.5 -55 t-241.5 -17q-178 0 -320.5 51.5t-242 148.5t-151.5 234t-52 304z" />
<glyph unicode="D" horiz-adv-x="1554" d="M57 0v211h154v1026h-154v211h670q179 0 322.5 -44t242.5 -132t151 -218t52 -298q0 -167 -51.5 -306.5t-150 -241t-237.5 -155t-313 -53.5h-686zM510 211h174q130 0 240.5 54t178.5 174t68 309q0 175 -65 284.5t-174.5 157t-251.5 47.5h-170v-1026z" />
<glyph unicode="E" horiz-adv-x="1214" d="M57 1237v211h1049l12 -426h-246l-12 215h-350v-381h360v-223h-360v-422h356l17 244h245l-16 -455h-1030v211h129v1026h-154z" />
<glyph unicode="F" horiz-adv-x="1176" d="M70 1237v211h1036l12 -426h-246l-12 215h-338v-401h396v-224h-396v-401h162v-211h-590v211h129v1026h-153z" />
<glyph unicode="G" horiz-adv-x="1479" d="M70 713q0 209 87 381t265.5 275.5t435.5 103.5q155 0 263 -24t218 -63v-403h-258v238q-88 28 -202 28q-130 0 -224.5 -41.5t-152.5 -114.5t-83.5 -165.5t-25.5 -194.5q0 -128 43 -245.5t151.5 -197t289.5 -79.5q75 0 155 12v269h-147v223h565v-223h-131v-449 q-70 -19 -152.5 -35.5t-167 -24.5t-163.5 -8q-178 0 -320.5 51.5t-242 148.5t-151.5 234t-52 304z" />
<glyph unicode="H" horiz-adv-x="1593" d="M74 0v211h129v1026h-129v211h557v-211h-129v-401h590v401h-129v211h557v-211h-129v-1026h129v-211h-557v211h129v401h-590v-401h129v-211h-557z" />
<glyph unicode="I" horiz-adv-x="721" d="M82 0v211h129v1026h-129v211h557v-211h-129v-1026h129v-211h-557z" />
<glyph unicode="J" horiz-adv-x="682" d="M-104 -199q86 40 144.5 92.5t96.5 129t56 184.5t18 256v774h-129v211h557v-211h-129v-811q0 -171 -29.5 -297t-89 -221t-155.5 -170.5t-234 -145.5z" />
<glyph unicode="K" horiz-adv-x="1479" d="M82 0v211h129v1026h-129v211h557v-211h-129v-461l385 367q81 75 125 90v4h-152v211h582v-211h-113l-528 -477l553 -549h115v-211h-631v211h168v4q-71 48 -99 74l-405 399v-477h129v-211h-557z" />
<glyph unicode="L" horiz-adv-x="1176" d="M94 0v211h129v1026h-129v211h557v-211h-129v-1026h352l17 258h248l-21 -469h-1024z" />
<glyph unicode="M" horiz-adv-x="1972" d="M45 1237v211h526l369 -963q23 -52 37 -95t20 -101h4q5 57 16 95t56 165l334 899h520v-211h-149v-1026h143v-211h-551v211h121v833h-4q-3 -51 -55 -190l-324 -854h-287l-332 868q-55 149 -57 191h-4v-848h150v-211h-508v211h125v1026h-150z" />
<glyph unicode="N" horiz-adv-x="1630" d="M29 1237v211h415l605 -768q49 -61 78 -106.5t42 -88.5h5v752h-132v211h519v-211h-142v-1237h-221l-682 864q-59 73 -67 113h-5v-766h140v-211h-506v211h133v1026h-182z" />
<glyph unicode="O" horiz-adv-x="1556" d="M70 725q0 150 47 284t139.5 239.5t224 165t297.5 59.5q238 0 396.5 -96t235.5 -264.5t77 -387.5q0 -212 -75 -382t-234.5 -269t-399.5 -99q-180 0 -317 58.5t-222 160.5t-127 238t-42 293zM393 725q0 -229 93 -371.5t292 -142.5q134 0 220.5 67.5t125.5 182.5t39 264 q0 227 -96 369.5t-289 142.5q-100 0 -172.5 -39t-120 -109.5t-70 -162.5t-22.5 -201z" />
<glyph unicode="P" horiz-adv-x="1251" d="M82 0v211h141v1026h-141v211h592q260 0 392 -107t132 -321q0 -133 -59 -238t-167.5 -164t-248.5 -59h-201v-348h142v-211h-582zM522 770h162q111 0 169 62.5t58 175.5q0 72 -28 124.5t-80 78.5t-123 26h-158v-467z" />
<glyph unicode="Q" horiz-adv-x="1556" d="M70 725q0 150 47 284t139.5 239.5t224 165t297.5 59.5q238 0 396.5 -96t235.5 -264.5t77 -387.5q0 -157 -40 -289.5t-124 -234t-209 -158.5v-4q67 -16 188.5 -76t178.5 -83t133 -23q30 0 72 8v-199q-32 -10 -78.5 -15t-67.5 -5q-102 0 -224 45t-234 105t-223.5 119.5 t-151.5 59.5q-173 0 -319 90t-232 261.5t-86 398.5zM393 725q0 -229 93 -371.5t292 -142.5q134 0 220.5 67.5t125.5 182.5t39 264q0 227 -96 369.5t-289 142.5q-100 0 -172.5 -39t-120 -109.5t-70 -162.5t-22.5 -201z" />
<glyph unicode="R" horiz-adv-x="1327" d="M70 1237v211h632q122 0 181 -10.5t121 -42.5q96 -49 144 -139.5t48 -204.5q0 -102 -50 -187.5t-128 -135t-160 -52.5v-4q56 -5 95 -35.5t89 -116.5l129 -219q30 -51 57.5 -70.5t59.5 -19.5h53v-211h-229q-61 0 -111.5 42t-128.5 175l-174 303q-43 72 -118 72h-70v-381 h129v-211h-557v211h129v1026h-141zM510 815h154q233 0 233 211q0 108 -58.5 159.5t-193.5 51.5h-135v-422z" />
<glyph unicode="S" horiz-adv-x="1290" d="M92 55v383h299v-190q91 -37 242 -37q86 0 142.5 25t84 69t27.5 101q0 61 -50 103t-184 75l-157 41q-218 56 -307 151t-89 264q0 88 32.5 166.5t100.5 138t178.5 94t254.5 34.5q130 0 255.5 -20t215.5 -56v-346h-271v176q-103 35 -192 35q-94 0 -152 -27.5t-84 -69.5 t-26 -88q0 -71 43 -104.5t127 -54.5l172 -44q101 -25 172.5 -50.5t134 -71t100 -119t37.5 -182.5q0 -105 -36.5 -192t-108.5 -150.5t-185.5 -98.5t-261.5 -35q-269 0 -514 80z" />
<glyph unicode="T" horiz-adv-x="1401" d="M35 1038l12 410h1307l12 -410h-246l-12 199h-258v-1026h129v-211h-557v211h129v1026h-258l-12 -199h-246z" />
<glyph unicode="U" horiz-adv-x="1554" d="M57 1237v211h557v-211h-129v-680q0 -111 26 -187.5t90.5 -117.5t174.5 -41q157 0 239.5 76t82.5 270v680h-158v211h557v-211h-129v-662q0 -223 -63.5 -354.5t-197.5 -188.5t-347 -57q-172 0 -285 37t-175.5 105.5t-88 165t-25.5 221.5v733h-129z" />
<glyph unicode="V" horiz-adv-x="1554" d="M16 1237v211h582v-211h-121l281 -827q33 -98 43 -174h4q11 84 43 174l280 827h-147v211h557v-211h-111l-481 -1237h-334l-481 1237h-115z" />
<glyph unicode="W" horiz-adv-x="2314" d="M4 1237v211h582v-211h-121l280 -827q32 -90 43 -174h5q11 84 43 174l215 624l-74 203h-135v211h569v-211h-129l252 -827q32 -108 41 -174h4q10 76 43 174l281 827h-150v211h557v-211h-115l-479 -1237h-317l-228 678h-4l-245 -678h-324l-479 1237h-115z" />
<glyph unicode="X" horiz-adv-x="1479" d="M27 0v211h118l428 498l-399 528h-119v211h607v-211h-138v-4q40 -19 76 -68l172 -225l209 240q29 35 66 53v4h-136v211h496v-211h-104l-396 -475l422 -551h123v-211h-606v211h119v4q-36 24 -72 72l-180 241l-203 -243q-45 -53 -78 -70v-4h127v-211h-532z" />
<glyph unicode="Y" horiz-adv-x="1518" d="M20 1237v211h570v-211h-115q47 -50 76 -92l237 -352l256 354q24 33 76 90h-143v211h520v-211h-113l-475 -659v-367h129v-211h-555v211h127v364l-477 662h-113z" />
<glyph unicode="Z" horiz-adv-x="1327" d="M76 0v201l719 932q48 66 98 100v4h-492l-12 -193h-258l12 404h1096v-211l-704 -922q-52 -70 -99 -100v-4h543l12 192h260l-16 -403h-1159z" />
<glyph unicode="[" d="M147 -520v2111h449v-211h-162v-1687h172v-213h-459z" />
<glyph unicode="\" horiz-adv-x="721" d="M-45 1546l207 76l604 -1720l-207 -76z" />
<glyph unicode="]" d="M0 1380v211h459v-2111h-449v213h162v1687h-172z" />
<glyph unicode="^" horiz-adv-x="1229" d="M127 692l365 756h245l365 -756h-221l-267 533l-266 -533h-221z" />
<glyph unicode="_" horiz-adv-x="1024" d="M0 -156h1024v-102h-1024v102z" />
<glyph unicode="`" horiz-adv-x="680" d="M-63 1559l145 143l444 -363l-153 -122z" />
<glyph unicode="a" horiz-adv-x="1214" d="M86 289q0 74 29 134t77.5 101.5t108.5 63.5q78 28 183.5 38.5t279.5 10.5v51q0 118 -48.5 162.5t-154.5 44.5q-33 0 -91 -9.5t-87 -21.5v-145h-246v276q67 38 185 74.5t243 36.5q229 0 349 -95t120 -321q0 -94 -10 -479h121v-211h-361v66q0 93 15 149h-4 q-56 -127 -137 -183.5t-214 -56.5q-116 0 -197 42.5t-121 114t-40 157.5zM373 317q0 -54 40 -92.5t117 -38.5q96 0 163 67t67 206h-80q-170 0 -238.5 -34.5t-68.5 -107.5z" />
<glyph unicode="b" horiz-adv-x="1251" d="M-43 1380v211h451v-424q0 -54 -5 -111.5t-16 -178.5h4q31 73 82 124.5t121 78t160 26.5q119 0 213 -57t147 -169.5t53 -267.5q0 -160 -57.5 -305.5t-192 -238.5t-348.5 -93q-131 0 -260.5 28.5t-187.5 62.5v1314h-164zM401 250q33 -17 86 -28t97 -11q147 0 222 105.5 t75 263.5q0 80 -22 145.5t-74 105t-136 39.5q-90 0 -145.5 -38t-79 -98.5t-23.5 -135.5v-348z" />
<glyph unicode="c" horiz-adv-x="1024" d="M63 541q0 174 69.5 300.5t197 195.5t297.5 69t338 -51v-316h-246v144q-58 12 -98 12q-91 0 -152 -48t-90 -123t-29 -153q0 -152 83.5 -256t256.5 -104q141 0 268 59l-16 -243q-79 -29 -146 -40.5t-175 -11.5q-131 0 -238 44t-177 120.5t-106.5 179.5t-36.5 222z" />
<glyph unicode="d" horiz-adv-x="1327" d="M63 469q0 161 58 306.5t191.5 238t349.5 92.5q91 0 176 -25v299h-164v211h450v-1380h123v-211h-403q0 107 24 209h-4q-48 -114 -139.5 -174t-224.5 -60q-120 0 -220 58t-158.5 169.5t-58.5 266.5zM362 539q0 -133 59.5 -224.5t160.5 -91.5q110 0 178.5 87.5t68.5 215.5 v305q-27 15 -78.5 27t-103.5 12q-145 0 -215 -96.5t-70 -234.5z" />
<glyph unicode="e" horiz-adv-x="1176" d="M63 537q0 168 64.5 296t187.5 200.5t287 72.5q263 0 390.5 -174t127.5 -457h-745q6 -129 97.5 -202.5t242.5 -73.5q96 0 172.5 16.5t173.5 56.5l-14 -229q-101 -36 -193.5 -52t-202.5 -16q-150 0 -262.5 44.5t-184 122.5t-106.5 178.5t-35 216.5zM373 674h436 q0 75 -26.5 127t-75 79t-115.5 27q-98 0 -154 -60.5t-65 -172.5z" />
<glyph unicode="f" horiz-adv-x="721" d="M33 870v211h147v117q0 213 115.5 318.5t357.5 105.5q96 0 205 -23v-210q-62 22 -135 22q-135 0 -195.5 -54t-60.5 -163v-113h225v-211h-225v-659h154v-211h-564v211h123v659h-147z" />
<glyph unicode="g" horiz-adv-x="1214" d="M47 -254q0 188 236 244v4q-75 16 -110.5 52.5t-35.5 109.5q0 72 60.5 118.5t146.5 61.5v4q-268 87 -268 356q0 123 58.5 216.5t167.5 143.5t255 50q85 0 225 -25h392v-198h-185q70 -87 70 -209q0 -123 -61 -206.5t-164 -125t-226 -41.5h-102q-28 0 -49 -17t-21 -40 q0 -26 17.5 -39t58.5 -19l354 -39q143 -15 215 -82t72 -204q0 -89 -54 -183t-182 -158.5t-329 -64.5q-154 0 -260.5 25.5t-168 68t-87 93t-25.5 104.5zM317 -190q0 -144 289 -144q105 0 191 40t86 110q0 45 -31 61.5t-111 26.5l-305 33q-45 -16 -82 -50.5t-37 -76.5z M346 696q0 -85 60.5 -134.5t166.5 -49.5q125 0 182.5 57t57.5 138q0 84 -64.5 136t-164.5 52q-66 0 -119.5 -20t-86 -64.5t-32.5 -114.5z" />
<glyph unicode="h" horiz-adv-x="1403" d="M33 1380v211h444v-510q0 -72 -2.5 -121t-13.5 -102h4q42 112 138.5 180t232.5 68q95 0 165 -28.5t115 -82.5t67.5 -132.5t22.5 -178.5v-473h123v-211h-526v211h117v444q0 203 -187 203q-124 0 -187 -78.5t-63 -208.5v-360h123v-211h-526v211h117v1169h-164z" />
<glyph unicode="i" horiz-adv-x="680" d="M57 870v211h426v-870h123v-211h-526v211h117v659h-140zM137 1442q0 53 23.5 93.5t67 63.5t102.5 23q89 0 140.5 -49.5t51.5 -130.5q0 -82 -51.5 -131t-140.5 -49t-141 49.5t-52 130.5z" />
<glyph unicode="j" horiz-adv-x="682" d="M-156 -315q130 26 208 97.5t111.5 187.5t33.5 290v610h-140v211h426v-845q0 -195 -37.5 -335.5t-115.5 -235.5t-188 -144.5t-265 -65.5zM137 1442q0 53 23.5 93.5t67 63.5t102.5 23q89 0 140.5 -49.5t51.5 -130.5q0 -82 -51.5 -131t-140.5 -49t-141 49.5t-52 130.5z" />
<glyph unicode="k" horiz-adv-x="1290" d="M51 1380v211h451v-970l286 221q27 18 43 24v4h-147v211h545v-211h-94l-334 -268l358 -391h119v-211h-569v211h112v4q-43 26 -90 76l-229 260v-340h98v-211h-502v211h117v1169h-164z" />
<glyph unicode="l" horiz-adv-x="643" d="M14 1380v211h451v-1380h123v-211h-527v211h117v1169h-164z" />
<glyph unicode="m" horiz-adv-x="2085" d="M59 870v211h420q0 -72 -2.5 -120t-13.5 -99h4q45 119 140 181.5t231 62.5q271 0 315 -244h4q40 118 130.5 181t228.5 63q186 0 278 -110.5t92 -311.5v-473h123v-211h-514v211h104v444q0 203 -186 203q-70 0 -121 -35.5t-78.5 -100.5t-27.5 -151v-360h123v-211h-514v211 h104v444q0 203 -186 203q-74 0 -125 -37t-77 -101.5t-26 -148.5v-360h123v-211h-526v211h117v659h-140z" />
<glyph unicode="n" horiz-adv-x="1403" d="M57 870v211h420q0 -72 -2.5 -121t-13.5 -102h4q42 112 138.5 180t232.5 68q95 0 165 -28.5t115 -82.5t67.5 -132.5t22.5 -178.5v-473h123v-211h-526v211h117v444q0 203 -187 203q-124 0 -187 -78.5t-63 -208.5v-360h123v-211h-514v211h105v659h-140z" />
<glyph unicode="o" horiz-adv-x="1253" d="M63 530q0 158 69 289.5t196.5 209t298.5 77.5q180 0 306 -66t191.5 -194.5t65.5 -315.5q0 -160 -69.5 -286.5t-198 -197.5t-295.5 -71q-262 0 -413 142.5t-151 412.5zM375 524q0 -150 62 -231.5t190 -81.5t190 81.5t62 231.5q0 177 -60.5 261.5t-191.5 84.5 q-126 0 -189 -95.5t-63 -250.5z" />
<glyph unicode="p" horiz-adv-x="1327" d="M16 870v211h447q0 -85 -19 -204h5q101 229 364 229q118 0 212.5 -56.5t148 -169.5t53.5 -268q0 -160 -58 -306t-192.5 -238.5t-347.5 -92.5q-76 0 -162 19v-301h123v-213h-527v213h117v1177h-164zM461 240q38 -13 89.5 -21t92.5 -8q147 0 222 105.5t75 263.5 q0 80 -21.5 145t-74.5 105t-135 40q-131 0 -189.5 -77.5t-58.5 -194.5v-358z" />
<glyph unicode="q" horiz-adv-x="1327" d="M88 469q0 115 34.5 228.5t110 206.5t195 147.5t285.5 54.5q109 0 226.5 -27t195.5 -63v-1323h127v-213h-529v213h115v194q0 202 22 318h-4q-45 -117 -126 -173.5t-218 -56.5q-124 0 -223 59.5t-155 172.5t-56 262zM387 539q0 -85 26 -157.5t75.5 -115.5t117.5 -43 q111 0 179.5 87.5t68.5 215.5v305q-26 15 -78.5 27t-103.5 12q-145 0 -215 -96.5t-70 -234.5z" />
<glyph unicode="r" horiz-adv-x="872" d="M76 870v211h416q0 -109 -19 -247h4q64 272 307 272q33 0 95 -12l-19 -258q-52 10 -92 10q-118 0 -192 -77t-74 -208v-350h135v-211h-539v211h117v659h-139z" />
<glyph unicode="s" horiz-adv-x="1100" d="M80 754q0 124 68 203.5t174 114t229 34.5q201 0 416 -72v-266h-258v109q-87 30 -166 30q-62 0 -106 -15.5t-65.5 -40.5t-21.5 -56q0 -26 7 -43t27.5 -27t61.5 -16l226 -33q183 -25 265.5 -101.5t82.5 -224.5q0 -102 -51 -187t-164.5 -136.5t-290.5 -51.5q-97 0 -216 19 t-206 49v305h258v-127q43 -14 97.5 -24.5t93.5 -10.5q70 0 139.5 29.5t69.5 103.5q0 47 -35 71.5t-127 37.5l-242 37q-266 41 -266 289z" />
<glyph unicode="t" horiz-adv-x="758" d="M51 870v211h146v224l286 16v-240h287v-211h-287v-481q0 -78 15 -118.5t48.5 -56t94.5 -15.5q54 0 139 32l-10 -204q-149 -52 -250 -52q-157 0 -240 73.5t-83 215.5v606h-146z" />
<glyph unicode="u" horiz-adv-x="1366" d="M47 870v211h430v-606q0 -87 12.5 -142.5t53.5 -88.5t123 -33q62 0 113 32.5t80.5 94t29.5 143.5v389h-135v211h422v-870h124v-211h-401q0 172 27 223h-4q-51 -128 -141 -188t-230 -60q-118 0 -199.5 46t-121.5 132t-40 201v516h-143z" />
<glyph unicode="v" horiz-adv-x="1214" d="M-16 870v211h528v-211h-100l194 -532q16 -43 21 -90h4q5 51 20 90l189 532h-121v211h512v-211h-98l-367 -870h-311l-373 870h-98z" />
<glyph unicode="w" horiz-adv-x="1896" d="M4 870v211h512v-211h-100q25 -42 51 -118l131 -367q22 -66 33 -125h4q8 33 47 127l160 361l-49 122h-115v211h520v-211h-111q22 -34 52 -118l133 -367q18 -48 33 -125h4q13 73 32 125l129 367q30 84 52 118h-142v211h512v-211h-98l-371 -870h-299l-143 375q-20 51 -25 92 h-4q-8 -53 -26 -92l-162 -375h-299l-361 870h-100z" />
<glyph unicode="x" horiz-adv-x="1327" d="M57 0v211h109l342 324l-315 335h-117v211h565v-211h-113v-4q27 -14 64 -51l102 -110l117 110q33 34 63 51v4h-112v211h475v-211h-109l-309 -295l338 -364h113v-211h-563v211h116v4q-22 8 -45 31l-143 153l-164 -153q-20 -22 -45 -31v-4h125v-211h-494z" />
<glyph unicode="y" horiz-adv-x="1251" d="M20 870v211h533v-211h-111q20 -23 39 -73l135 -369q34 -93 50 -205h4q6 50 18.5 102.5t30.5 102.5l127 369q19 50 39 73h-133v211h479v-211h-98l-330 -893q-76 -207 -150 -319.5t-165 -157.5t-228 -45q-43 0 -156 25v225q91 -27 156 -27q60 0 101.5 21t78.5 74.5 t88 154.5l-409 942h-99z" />
<glyph unicode="z" horiz-adv-x="1139" d="M82 0v211l561 612q27 30 53 43v4h-334l-8 -141h-245l8 352h930v-209l-555 -612q-34 -36 -60 -45v-4h369l4 151h252l-17 -362h-958z" />
<glyph unicode="{" d="M0 457v157q48 1 85 34.5t56 88.5t19 117v428q0 97 37.5 167t103.5 106t148 36h165v-153h-55q-63 0 -88 -41t-25 -121v-422q0 -125 -58.5 -206.5t-154.5 -108.5v-4q96 -28 154.5 -110.5t58.5 -207.5v-422q0 -78 25 -120t88 -42h55v-153h-165q-82 0 -148 36t-103.5 106 t-37.5 167v428q0 63 -19 118t-56 88t-85 34z" />
<glyph unicode="|" horiz-adv-x="455" d="M117 -25v1616h221v-1616h-221z" />
<glyph unicode="}" d="M-8 -367h55q63 0 88 42t25 120v422q0 84 27.5 149.5t75.5 108t110 60.5v4q-60 16 -109 58t-76.5 107.5t-27.5 149.5v422q0 80 -25 121t-88 41h-55v153h166q81 0 147 -36t103.5 -106t37.5 -167v-428q0 -98 43.5 -167.5t116.5 -72.5v-157q-73 -3 -116.5 -71t-43.5 -169 v-428q0 -97 -37.5 -167t-103.5 -106t-147 -36h-166v153z" />
<glyph unicode="~" horiz-adv-x="1229" d="M141 530q43 89 106 132t150 43q86 0 238 -70q25 -10 43.5 -19t61 -25.5t59 -21t35.5 -4.5q43 0 85 35t95 115l73 -197q-42 -90 -105 -133t-151 -43q-50 0 -108 19t-128.5 51t-118.5 50.5t-81 18.5q-42 0 -85.5 -36t-94.5 -113z" />
<glyph horiz-adv-x="1802" d="M0 264q2 89 61 156t152 67q23 0 36 -13t13 -36q0 -28 -48 -49.5t-71.5 -41.5t-23.5 -81q0 -65 49 -100t123 -35q2 1 4 1.5t4 0.5q70 0 138.5 26t113.5 75t45 114q0 50 -30 107t-88 143.5t-88 150.5t-30 130q0 201 197 376q89 81 204 138t218 57q70 0 117 -37t47 -106 q0 -22 -6 -43q88 80 202.5 136t219.5 56q70 0 116.5 -37t46.5 -106q0 -84 -59.5 -164t-146.5 -150q-72 -54 -145.5 -97.5t-123.5 -43.5q-19 0 -38 14t-19 33l2 4q0 40 70 66q110 36 206 110q73 59 109.5 113t36.5 92q0 31 -19 48.5t-53 17.5q-65 0 -150 -40t-147 -89 q-76 -58 -134 -146.5t-58 -173.5q0 -70 30.5 -134t90.5 -155.5t91 -151t31 -116.5q0 -92 -64 -164.5t-162 -111.5t-187 -39q-191 0 -262 110q-61 -54 -149 -85t-169 -31q-102 0 -170.5 33t-100.5 87t-32 115zM473 901q0 -55 20.5 -108t45 -94t76.5 -123t69 -119 q61 37 109 37q21 0 35 -14t14 -36q0 -19 -12.5 -29.5t-40 -21t-46.5 -22t-32 -36t-13 -77.5q6 -57 54 -89t118 -32q2 1 4 1.5t5 0.5q70 0 138.5 26t113.5 75t45 114q0 50 -30 107t-88 143.5t-88 150.5t-30 130q0 69 23 135q-5 -4 -14 -14t-13 -13q-65 -51 -142.5 -96 t-125.5 -45q-20 0 -39 14t-19 33l2 4q0 40 70 66q108 35 207 110q72 60 108.5 113.5t36.5 91.5q0 31 -19 48.5t-52 17.5q-64 0 -148.5 -39.5t-148.5 -89.5q-78 -59 -135.5 -147t-57.5 -173zM1300 86q0 60 68 212t151 281.5t115 129.5q16 0 27.5 -10.5t11.5 -28.5 q0 -15 -55.5 -101t-110.5 -193t-98 -251q-14 -50 -24 -69t-39 -19q-20 0 -33 15t-13 34zM1706 954q0 26 21 62t50.5 62t55.5 26q24 0 36.5 -13.5t12.5 -35.5q0 -27 -21.5 -63.5t-51.5 -62.5t-56 -26q-47 0 -47 51z" />
<glyph unicode="&#xa1;" d="M111 952q0 80 51.5 133.5t140.5 53.5q90 0 141.5 -53.5t51.5 -133.5q0 -89 -54 -137.5t-139 -48.5q-84 0 -138 48.5t-54 137.5zM141 -487l25 1126h274l25 -1126h-324z" />
<glyph unicode="&#xa2;" horiz-adv-x="1212" d="M104 541q0 136 47.5 254t154.5 202.5t278 108.5v197h196v-197q188 -9 328 -68v-303h-221v125q-42 23 -107 23v-672q85 0 158.5 14.5t142.5 48.5l-14 -247q-104 -40 -287 -52v-254h-196v265q-235 30 -357.5 172.5t-122.5 382.5zM391 559q0 -123 50.5 -209.5t142.5 -116.5 v641q-92 -22 -142.5 -109t-50.5 -206z" />
<glyph unicode="&#xa3;" horiz-adv-x="1212" d="M63 0v211h160q43 110 43 262q0 93 -10 164h-188v211h176q-6 58 -6 147q0 239 137.5 363.5t435.5 124.5q156 0 360 -51v-437h-247v244q-64 21 -140 21q-80 0 -138.5 -31t-90 -90t-31.5 -144q0 -30 2 -66.5t4 -80.5h261v-211h-248q10 -113 10 -137q0 -93 -12.5 -155 t-51.5 -134h437v254h245v-465h-1108z" />
<glyph unicode="&#xa4;" horiz-adv-x="1212" d="M63 313l123 123q-88 130 -88 289q0 157 88 287l-123 123l127 129l121 -121q134 94 295 94q79 0 155.5 -24.5t139.5 -69.5l121 121l127 -129l-123 -123q88 -130 88 -287q0 -159 -88 -289l123 -123l-127 -129l-121 121q-134 -94 -295 -94t-295 94l-121 -121zM319 725 q0 -90 38.5 -159t104.5 -106.5t144 -37.5q79 0 144.5 37.5t104 106.5t38.5 159q0 89 -38.5 157.5t-104 106t-144.5 37.5q-78 0 -144 -37.5t-104.5 -106t-38.5 -157.5z" />
<glyph unicode="&#xa5;" horiz-adv-x="1212" d="M16 1237v211h455v-211h-92q37 -47 61 -92l193 -352l201 354q25 42 63 90h-115v211h414v-211h-90l-244 -422h193v-178h-293l-35 -59v-50h328v-178h-328v-139h102v-211h-442v211h100v139h-327v178h327v50l-34 59h-293v178h190l-244 422h-90z" />
<glyph unicode="&#xa6;" horiz-adv-x="455" d="M117 -25v596h221v-596h-221zM117 995v596h221v-596h-221z" />
<glyph unicode="&#xa7;" horiz-adv-x="1212" d="M117 -25h270v-143q89 -37 193 -37q87 0 151 36t64 110q0 33 -15 54.5t-62.5 47.5t-154.5 70l-178 71q-106 43 -162 83t-81 93t-25 129q0 110 53.5 192.5t146.5 129.5q-63 33 -102 67t-59.5 85t-20.5 133q0 130 68.5 214.5t184.5 123.5t257 39q109 0 228 -27.5t165 -52.5 v-299h-258v141q-66 27 -145 27q-88 0 -150.5 -36.5t-62.5 -101.5q0 -48 29 -73t124 -64l179 -74q160 -64 251 -138.5t91 -203.5q0 -112 -49 -185.5t-146 -125.5q83 -41 131.5 -114.5t48.5 -170.5q0 -83 -32.5 -155.5t-97.5 -128t-164 -87.5t-226 -32q-93 0 -177 11t-149 30 t-118 41v321zM385 561q0 -43 20.5 -71.5t63 -49t127.5 -51.5l143 -51q99 56 99 154q0 32 -13.5 56t-47 47.5t-93.5 47.5l-190 78q-109 -61 -109 -160z" />
<glyph unicode="&#xa8;" horiz-adv-x="680" d="M-78 1448q0 76 49 125t131 49q83 0 132 -48t49 -126q0 -77 -49.5 -125.5t-131.5 -48.5q-81 0 -130.5 49.5t-49.5 124.5zM397 1448q0 76 49 125t132 49q82 0 131 -48t49 -126q0 -77 -49.5 -125.5t-130.5 -48.5q-82 0 -131.5 49.5t-49.5 124.5z" />
<glyph unicode="&#xa9;" horiz-adv-x="1638" d="M78 725q0 151 58 289.5t160 241.5t237.5 160t285.5 57q151 0 286.5 -57t237.5 -160t160 -241.5t58 -289.5q0 -202 -99.5 -375t-270 -274t-372.5 -101q-200 0 -371 101t-270.5 274.5t-99.5 374.5zM262 725q0 -169 74 -301.5t202 -207.5t281 -75t281 75t202 207.5t74 301.5 q0 129 -43 235.5t-118.5 183.5t-178 120t-217.5 43q-114 0 -217 -43t-179 -121t-118.5 -185.5t-42.5 -232.5zM424 727q0 138 51.5 240t146 156.5t220.5 54.5q92 0 168.5 -37t125.5 -107t62 -168h-160q-9 50 -34 85t-67.5 54t-98.5 19q-75 0 -129.5 -38.5t-83.5 -107 t-29 -151.5q0 -86 29 -154.5t85.5 -107.5t135.5 -39q76 0 129.5 44.5t62.5 123.5h172q-28 -150 -130.5 -236t-252.5 -86q-181 0 -292 124t-111 331z" />
<glyph unicode="&#xaa;" horiz-adv-x="788" d="M57 999q0 67 41 113.5t103 67.5q89 30 297 30v9q0 70 -30 96t-95 26q-40 0 -111 -18v-72h-172v166q150 66 281 66q156 0 233.5 -56.5t77.5 -193.5q0 -72 -3.5 -149.5t-4.5 -118.5h76v-142h-234q1 20 3 64t3 63h-4q-57 -143 -219 -143q-117 0 -179.5 54.5t-62.5 137.5z M254 1010q0 -62 98 -62q39 0 72 14.5t53.5 47t20.5 84.5q-96 0 -148 -7t-74 -24.5t-22 -52.5z" />
<glyph unicode="&#xab;" horiz-adv-x="1139" d="M63 537v159l277 328l203 -172l-211 -236l211 -235l-203 -172zM596 537v159l276 328l203 -172l-211 -236l211 -235l-203 -172z" />
<glyph unicode="&#xac;" horiz-adv-x="1229" d="M96 610v224h1037v-621h-222v397h-815z" />
<glyph unicode="&#xad;" horiz-adv-x="872" d="M137 492v249h598v-249h-598z" />
<glyph unicode="&#xae;" horiz-adv-x="1638" d="M78 725q0 151 58 289.5t160 241.5t237.5 160t285.5 57q151 0 286.5 -57t237.5 -160t160 -241.5t58 -289.5q0 -202 -99.5 -375t-270 -274t-372.5 -101q-200 0 -371 101t-270.5 274.5t-99.5 374.5zM262 725q0 -169 74 -301.5t202 -207.5t281 -75t281 75t202 207.5t74 301.5 q0 129 -43 235.5t-118.5 183.5t-178 120t-217.5 43q-114 0 -217 -43t-179 -121t-118.5 -185.5t-42.5 -232.5zM502 295v858h327q161 0 239.5 -59.5t78.5 -188.5q0 -109 -60 -167t-157 -76l231 -367h-172l-215 360h-125v-360h-147zM649 784h154q111 0 153.5 29.5t42.5 97.5 q0 113 -192 113h-158v-240z" />
<glyph unicode="&#xaf;" horiz-adv-x="680" d="M14 1354v211h652v-211h-652z" />
<glyph unicode="&#xb0;" horiz-adv-x="819" d="M117 1188q0 123 86 209t207 86q81 0 147.5 -39.5t105.5 -107t39 -148.5t-39 -149t-107 -108t-146 -40t-146.5 40t-107.5 108t-39 149zM289 1188q0 -60 33 -95.5t88 -35.5t87.5 35.5t32.5 95.5q0 58 -32.5 93.5t-87.5 35.5t-88 -35.5t-33 -93.5z" />
<glyph unicode="&#xb1;" horiz-adv-x="1229" d="M96 0v223h1037v-223h-1037zM96 553v223h408v271h221v-271h408v-223h-408v-272h-221v272h-408z" />
<glyph unicode="&#xb2;" horiz-adv-x="788" d="M25 588v145q74 47 185 132.5t197.5 180t86.5 162.5q0 52 -37 80.5t-86 28.5q-62 0 -97.5 -42.5t-35.5 -105.5h-209q0 47 17 100.5t58.5 103t111 80t167.5 30.5q137 0 234.5 -61.5t97.5 -192.5q0 -61 -25.5 -120t-75.5 -119.5t-119.5 -120.5t-162.5 -121l4 -5q52 11 94 11 h305v-166h-710z" />
<glyph unicode="&#xb3;" horiz-adv-x="788" d="M23 618v197q143 -70 272 -70q98 0 149.5 28.5t51.5 80.5q0 68 -72.5 91.5t-192.5 23.5v139q122 0 175 37t53 92q0 37 -27.5 58.5t-77.5 21.5q-51 0 -87 -33.5t-36 -81.5h-208q0 72 39 135.5t118.5 104.5t192.5 41q136 0 221.5 -59.5t85.5 -159.5q0 -50 -24.5 -97t-68 -77 t-98.5 -37v-4q97 -2 162.5 -56t65.5 -153q0 -102 -86 -187.5t-314 -85.5q-64 0 -117 6t-94.5 17t-82.5 28z" />
<glyph unicode="&#xb4;" horiz-adv-x="680" d="M154 1339l444 363l145 -143l-436 -342z" />
<glyph unicode="&#xb5;" horiz-adv-x="1366" d="M47 870v211h430v-606q0 -87 12.5 -142.5t53.5 -88.5t123 -33q62 0 113 32.5t80.5 94t29.5 143.5v389h-135v211h422v-870h124v-211h-401q0 172 27 223h-4q-34 -85 -82 -139.5t-106 -81.5t-122 -27q-46 0 -72.5 11.5t-58.5 36.5h-4v-543h-287v1390h-143z" />
<glyph unicode="&#xb6;" horiz-adv-x="1229" d="M31 1055q0 137 58.5 224.5t165 128t253.5 40.5h506v-1851h-209v1710h-180v-1710h-209v1079q-103 0 -192 49.5t-141 135.5t-52 194z" />
<glyph unicode="&#xb8;" horiz-adv-x="680" d="M100 -487l9 149q85 -29 149 -29q63 0 100 22t37 58q0 38 -32 55t-125 17v223h184v-133q124 0 171.5 -51.5t47.5 -122.5q0 -65 -39.5 -115.5t-111 -78t-162.5 -27.5q-96 0 -228 33z" />
<glyph unicode="&#xb9;" horiz-adv-x="788" d="M55 1272l334 184h152v-727h174v-141h-557v141h174v539q-6 -4 -22 -16t-31 -21l-148 -86z" />
<glyph unicode="&#xba;" horiz-adv-x="788" d="M29 1145q0 102 44 178.5t127.5 118t194.5 41.5q86 0 153 -23.5t114 -67t72.5 -108t25.5 -139.5q0 -166 -97 -252t-268 -86t-268.5 86t-97.5 252zM250 1145q0 -83 38 -133.5t107 -50.5t106.5 50t37.5 134q0 83 -37.5 133.5t-106.5 50.5q-70 0 -107.5 -50.5t-37.5 -133.5z " />
<glyph unicode="&#xbb;" horiz-adv-x="1139" d="M63 381l211 235l-211 236l203 172l277 -328v-159l-277 -328zM596 381l211 235l-211 236l203 172l276 -328v-159l-276 -328z" />
<glyph unicode="&#xbc;" horiz-adv-x="1821" d="M6 1272l334 184h152v-727h174v-141h-557v141h174v539q-6 -4 -27.5 -19t-26.5 -18l-147 -86zM389 -29l862 1598l176 -92l-862 -1598zM999 227v142l371 499h260v-487h144v-154h-144v-86h90v-141h-389v141h90v86h-422zM1198 375q28 6 55 6h168v297h-4z" />
<glyph unicode="&#xbd;" horiz-adv-x="1821" d="M6 1272l334 184h152v-727h174v-141h-557v141h174v539q-6 -4 -27.5 -19t-26.5 -18l-147 -86zM354 -29l863 1598l176 -92l-863 -1598zM1036 0v145q137 86 303 231.5t166 244.5q0 52 -36.5 81t-86.5 29q-62 0 -97.5 -43t-35.5 -106h-209q0 110 72 198q92 115 283 115 q136 0 233.5 -61.5t97.5 -192.5q0 -118 -98 -236.5t-285 -244.5l5 -4q53 10 94 10h305v-166h-711z" />
<glyph unicode="&#xbe;" horiz-adv-x="1821" d="M39 618v197q143 -70 272 -70q98 0 149.5 28.5t51.5 80.5q0 68 -72 91.5t-192 23.5v139q121 0 174 37t53 92q0 37 -27 58.5t-77 21.5q-52 0 -87.5 -33t-35.5 -82h-209q0 72 39.5 136t118 104.5t192.5 40.5q136 0 221.5 -59.5t85.5 -159.5q0 -50 -24.5 -97t-67 -76.5 t-98.5 -37.5v-4q62 -2 113.5 -25.5t82.5 -71t31 -112.5q0 -102 -86 -187.5t-313 -85.5q-64 0 -117 6t-95.5 17t-82.5 28zM389 -29l862 1598l176 -92l-862 -1598zM999 227v142l371 499h260v-487h144v-154h-144v-86h90v-141h-389v141h90v86h-422zM1198 375q28 6 55 6h168v297 h-4z" />
<glyph unicode="&#xbf;" horiz-adv-x="985" d="M-31 -135q0 146 69 237t164 148.5t187 117t92 121.5q0 43 -45 109l258 76q74 -103 74 -205q0 -100 -61 -158.5t-182 -125.5t-182.5 -125.5t-61.5 -153.5q0 -63 34 -105.5t92.5 -63t129.5 -20.5q119 0 256 39l10 -229q-200 -47 -328 -47q-190 0 -303.5 63t-158 150.5 t-44.5 171.5zM399 952q0 79 51.5 133t141.5 54t141 -53.5t51 -133.5q0 -89 -54 -137.5t-138 -48.5q-85 0 -139 48.5t-54 137.5z" />
<glyph unicode="&#xc0;" horiz-adv-x="1593" d="M29 0v211h114l504 1237h330l473 -1237h115v-211h-570v211h117l-92 276h-494l-102 -276h137v-211h-532zM393 1862l146 143l444 -363l-154 -122zM610 711h334l-102 303q-39 106 -54 211h-4q-20 -94 -63 -211z" />
<glyph unicode="&#xc1;" horiz-adv-x="1593" d="M29 0v211h114l504 1237h330l473 -1237h115v-211h-570v211h117l-92 276h-494l-102 -276h137v-211h-532zM610 711h334l-102 303q-39 106 -54 211h-4q-20 -94 -63 -211zM610 1642l445 363l145 -143l-436 -342z" />
<glyph unicode="&#xc2;" horiz-adv-x="1593" d="M29 0v211h114l504 1237h330l473 -1237h115v-211h-570v211h117l-92 276h-494l-102 -276h137v-211h-532zM338 1690l371 286h176l370 -286l-165 -138l-293 232l-293 -232zM610 711h334l-102 303q-39 106 -54 211h-4q-20 -94 -63 -211z" />
<glyph unicode="&#xc3;" horiz-adv-x="1593" d="M29 0v211h114l504 1237h330l473 -1237h115v-211h-570v211h117l-92 276h-494l-102 -276h137v-211h-532zM377 1694q41 101 114.5 162t167.5 61q44 0 82 -14.5t89 -45.5t70 -40t46 -9q38 0 62.5 19t60.5 74l148 -107q-46 -84 -113.5 -140.5t-151.5 -56.5q-37 0 -74 15.5 t-79.5 41t-75.5 42t-59 16.5q-61 0 -113 -104zM610 711h334l-102 303q-39 106 -54 211h-4q-20 -94 -63 -211z" />
<glyph unicode="&#xc4;" horiz-adv-x="1593" d="M29 0v211h114l504 1237h330l473 -1237h115v-211h-570v211h117l-92 276h-494l-102 -276h137v-211h-532zM379 1751q0 49 22 89.5t63 62.5t95 22t95.5 -22t63 -62.5t21.5 -89.5q0 -76 -49 -125t-131 -49q-81 0 -130.5 49.5t-49.5 124.5zM610 711h334l-102 303 q-39 106 -54 211h-4q-20 -94 -63 -211zM854 1751q0 49 22 89.5t63 62.5t95 22t95.5 -22t63 -62.5t21.5 -89.5q0 -76 -49 -125t-131 -49q-81 0 -130.5 49.5t-49.5 124.5z" />
<glyph unicode="&#xc5;" horiz-adv-x="1593" d="M29 0v211h114l504 1237h330l473 -1237h115v-211h-570v211h117l-92 276h-494l-102 -276h137v-211h-532zM553 1716q0 98 66.5 160.5t177.5 62.5q109 0 176 -63t67 -160q0 -62 -30 -113.5t-86.5 -80.5t-126.5 -29q-110 0 -177 63t-67 160zM610 711h334l-102 303 q-39 106 -54 211h-4q-20 -94 -63 -211zM713 1716q0 -49 22 -77.5t62 -28.5t62 28.5t22 77.5q0 50 -22 78.5t-62 28.5t-62 -28.5t-22 -78.5z" />
<glyph unicode="&#xc6;" horiz-adv-x="2087" d="M29 0v211h104l694 1237h1115l12 -426h-246l-12 215h-316v-422h324v-211h-324v-393h359l16 244h246l-16 -455h-1043v211h139v393h-448l-201 -393h139v-211h-542zM739 815h342v422h-127z" />
<glyph unicode="&#xc7;" horiz-adv-x="1403" d="M70 713q0 204 86.5 377t262.5 278t429 105q128 0 244.5 -21.5t228.5 -62.5v-404h-258v232q-96 32 -203 32q-124 0 -214 -41.5t-146 -114.5t-81.5 -165.5t-25.5 -194.5q0 -128 43 -245.5t151.5 -197t289.5 -79.5q103 0 167 20l13 263h258l-12 -447q-183 -61 -396 -72v-100 q123 0 171 -50.5t48 -123.5q0 -65 -39.5 -115.5t-111 -78t-162.5 -27.5q-97 0 -227 33l8 149q85 -29 149 -29q65 0 101.5 22t36.5 58q0 38 -32.5 55t-125.5 17v195q-154 18 -276 76t-205.5 152t-127.5 222.5t-44 282.5z" />
<glyph unicode="&#xc8;" horiz-adv-x="1214" d="M57 1237v211h1049l12 -426h-246l-12 215h-350v-381h360v-223h-360v-422h356l17 244h245l-16 -455h-1030v211h129v1026h-154zM205 1862l145 143l445 -363l-154 -122z" />
<glyph unicode="&#xc9;" horiz-adv-x="1214" d="M57 1237v211h1049l12 -426h-246l-12 215h-350v-381h360v-223h-360v-422h356l17 244h245l-16 -455h-1030v211h129v1026h-154zM422 1642l444 363l146 -143l-437 -342z" />
<glyph unicode="&#xca;" horiz-adv-x="1214" d="M57 1237v211h1049l12 -426h-246l-12 215h-350v-381h360v-223h-360v-422h356l17 244h245l-16 -455h-1030v211h129v1026h-154zM150 1690l370 286h176l371 -286l-166 -138l-293 232l-293 -232z" />
<glyph unicode="&#xcb;" horiz-adv-x="1214" d="M57 1237v211h1049l12 -426h-246l-12 215h-350v-381h360v-223h-360v-422h356l17 244h245l-16 -455h-1030v211h129v1026h-154zM190 1751q0 78 49 126t132 48q54 0 95 -22t63 -62.5t22 -89.5q0 -77 -49.5 -125.5t-130.5 -48.5q-82 0 -131.5 49.5t-49.5 124.5zM666 1751 q0 79 49.5 126.5t130.5 47.5q54 0 95 -22t63 -62.5t22 -89.5q0 -77 -49.5 -125.5t-130.5 -48.5q-80 0 -130 49t-50 125z" />
<glyph unicode="&#xcc;" horiz-adv-x="721" d="M-43 1862l145 143l445 -363l-154 -122zM82 0v211h129v1026h-129v211h557v-211h-129v-1026h129v-211h-557z" />
<glyph unicode="&#xcd;" horiz-adv-x="721" d="M82 0v211h129v1026h-129v211h557v-211h-129v-1026h129v-211h-557zM174 1642l444 363l146 -143l-436 -342z" />
<glyph unicode="&#xce;" horiz-adv-x="721" d="M-98 1690l370 286h177l370 -286l-166 -138l-293 232l-292 -232zM82 0v211h129v1026h-129v211h557v-211h-129v-1026h129v-211h-557z" />
<glyph unicode="&#xcf;" horiz-adv-x="721" d="M-57 1751q0 79 49.5 126.5t130.5 47.5q54 0 95 -22t63 -62.5t22 -89.5q0 -77 -49.5 -125.5t-130.5 -48.5q-80 0 -130 49t-50 125zM82 0v211h129v1026h-129v211h557v-211h-129v-1026h129v-211h-557zM418 1751q0 79 49.5 126.5t130.5 47.5q54 0 95.5 -22t63 -62.5 t21.5 -89.5q0 -76 -49 -125t-131 -49q-80 0 -130 49t-50 125z" />
<glyph unicode="&#xd0;" horiz-adv-x="1554" d="M57 0v211h154v434h-154v211h154v381h-154v211h670q179 0 322.5 -44t242.5 -132t151 -218t52 -298q0 -167 -51.5 -306.5t-150 -241t-237.5 -155t-313 -53.5h-686zM510 211h174q130 0 240.5 54t178.5 174t68 309q0 175 -65 284.5t-174.5 157t-251.5 47.5h-170v-381h305 v-211h-305v-434z" />
<glyph unicode="&#xd1;" horiz-adv-x="1630" d="M29 1237v211h415l605 -768q49 -61 78 -106.5t42 -88.5h5v752h-132v211h519v-211h-142v-1237h-221l-682 864q-59 73 -67 113h-5v-766h140v-211h-506v211h133v1026h-182zM395 1694q40 99 114.5 161t168.5 62q44 0 80.5 -14t71 -35t71.5 -40.5t64 -19.5q37 0 61.5 19 t60.5 74l148 -107q-44 -84 -112 -140.5t-152 -56.5q-37 0 -72 14.5t-82 42t-77.5 43t-57.5 15.5q-61 0 -113 -104z" />
<glyph unicode="&#xd2;" horiz-adv-x="1556" d="M70 725q0 150 47 284t139.5 239.5t224 165t297.5 59.5q238 0 396.5 -96t235.5 -264.5t77 -387.5q0 -212 -75 -382t-234.5 -269t-399.5 -99q-180 0 -317 58.5t-222 160.5t-127 238t-42 293zM375 1862l145 143l445 -363l-154 -122zM393 725q0 -229 93 -371.5t292 -142.5 q134 0 220.5 67.5t125.5 182.5t39 264q0 227 -96 369.5t-289 142.5q-100 0 -172.5 -39t-120 -109.5t-70 -162.5t-22.5 -201z" />
<glyph unicode="&#xd3;" horiz-adv-x="1556" d="M70 725q0 150 47 284t139.5 239.5t224 165t297.5 59.5q238 0 396.5 -96t235.5 -264.5t77 -387.5q0 -212 -75 -382t-234.5 -269t-399.5 -99q-180 0 -317 58.5t-222 160.5t-127 238t-42 293zM393 725q0 -229 93 -371.5t292 -142.5q134 0 220.5 67.5t125.5 182.5t39 264 q0 227 -96 369.5t-289 142.5q-100 0 -172.5 -39t-120 -109.5t-70 -162.5t-22.5 -201zM592 1642l444 363l146 -143l-437 -342z" />
<glyph unicode="&#xd4;" horiz-adv-x="1556" d="M70 725q0 150 47 284t139.5 239.5t224 165t297.5 59.5q238 0 396.5 -96t235.5 -264.5t77 -387.5q0 -212 -75 -382t-234.5 -269t-399.5 -99q-180 0 -317 58.5t-222 160.5t-127 238t-42 293zM319 1690l371 286h176l371 -286l-166 -138l-293 232l-293 -232zM393 725 q0 -229 93 -371.5t292 -142.5q134 0 220.5 67.5t125.5 182.5t39 264q0 227 -96 369.5t-289 142.5q-100 0 -172.5 -39t-120 -109.5t-70 -162.5t-22.5 -201z" />
<glyph unicode="&#xd5;" horiz-adv-x="1556" d="M70 725q0 150 47 284t139.5 239.5t224 165t297.5 59.5q238 0 396.5 -96t235.5 -264.5t77 -387.5q0 -212 -75 -382t-234.5 -269t-399.5 -99q-180 0 -317 58.5t-222 160.5t-127 238t-42 293zM358 1694q40 99 114.5 161t168.5 62q44 0 80.5 -14t71 -35t71.5 -40.5t64 -19.5 q37 0 60.5 17.5t62.5 75.5l147 -107q-44 -84 -112 -140.5t-152 -56.5q-37 0 -72 14.5t-82 42t-77.5 43t-57.5 15.5q-61 0 -113 -104zM393 725q0 -229 93 -371.5t292 -142.5q134 0 220.5 67.5t125.5 182.5t39 264q0 227 -96 369.5t-289 142.5q-100 0 -172.5 -39t-120 -109.5 t-70 -162.5t-22.5 -201z" />
<glyph unicode="&#xd6;" horiz-adv-x="1556" d="M70 725q0 150 47 284t139.5 239.5t224 165t297.5 59.5q238 0 396.5 -96t235.5 -264.5t77 -387.5q0 -212 -75 -382t-234.5 -269t-399.5 -99q-180 0 -317 58.5t-222 160.5t-127 238t-42 293zM360 1751q0 78 49 126t132 48q54 0 95 -22t63 -62.5t22 -89.5 q0 -77 -49.5 -125.5t-130.5 -48.5q-82 0 -131.5 49.5t-49.5 124.5zM393 725q0 -229 93 -371.5t292 -142.5q134 0 220.5 67.5t125.5 182.5t39 264q0 227 -96 369.5t-289 142.5q-100 0 -172.5 -39t-120 -109.5t-70 -162.5t-22.5 -201zM836 1751q0 79 49.5 126.5t130.5 47.5 q54 0 95 -22t63 -62.5t22 -89.5q0 -77 -49.5 -125.5t-130.5 -48.5q-80 0 -130 49t-50 125z" />
<glyph unicode="&#xd7;" horiz-adv-x="1229" d="M127 188l332 336l-332 334l156 158l331 -336l332 336l156 -158l-332 -334l332 -336l-156 -157l-332 336l-331 -336z" />
<glyph unicode="&#xd8;" horiz-adv-x="1556" d="M70 725q0 150 47 284t139.5 239.5t224 165t297.5 59.5q178 0 309 -58l154 256l158 -94l-152 -254q119 -95 179.5 -249t60.5 -349q0 -212 -75 -382t-234.5 -269t-399.5 -99q-179 0 -309 56l-154 -254l-157 94l153 256q-121 97 -181 251.5t-60 346.5zM393 725 q0 -207 74 -338l487 809q-71 41 -176 41q-100 0 -172.5 -39t-120 -109.5t-70 -162.5t-22.5 -201zM602 250q76 -39 176 -39q134 0 220.5 67.5t125.5 182.5t39 264q0 97 -19 183t-57 149z" />
<glyph unicode="&#xd9;" horiz-adv-x="1554" d="M57 1237v211h557v-211h-129v-680q0 -111 26 -187.5t90.5 -117.5t174.5 -41q157 0 239.5 76t82.5 270v680h-158v211h557v-211h-129v-662q0 -223 -63.5 -354.5t-197.5 -188.5t-347 -57q-172 0 -285 37t-175.5 105.5t-88 165t-25.5 221.5v733h-129zM375 1862l145 143 l445 -363l-154 -122z" />
<glyph unicode="&#xda;" horiz-adv-x="1554" d="M57 1237v211h557v-211h-129v-680q0 -111 26 -187.5t90.5 -117.5t174.5 -41q157 0 239.5 76t82.5 270v680h-158v211h557v-211h-129v-662q0 -223 -63.5 -354.5t-197.5 -188.5t-347 -57q-172 0 -285 37t-175.5 105.5t-88 165t-25.5 221.5v733h-129zM592 1642l444 363 l146 -143l-437 -342z" />
<glyph unicode="&#xdb;" horiz-adv-x="1554" d="M57 1237v211h557v-211h-129v-680q0 -111 26 -187.5t90.5 -117.5t174.5 -41q157 0 239.5 76t82.5 270v680h-158v211h557v-211h-129v-662q0 -223 -63.5 -354.5t-197.5 -188.5t-347 -57q-172 0 -285 37t-175.5 105.5t-88 165t-25.5 221.5v733h-129zM319 1690l371 286h176 l371 -286l-166 -138l-293 232l-293 -232z" />
<glyph unicode="&#xdc;" horiz-adv-x="1554" d="M57 1237v211h557v-211h-129v-680q0 -111 26 -187.5t90.5 -117.5t174.5 -41q157 0 239.5 76t82.5 270v680h-158v211h557v-211h-129v-662q0 -223 -63.5 -354.5t-197.5 -188.5t-347 -57q-172 0 -285 37t-175.5 105.5t-88 165t-25.5 221.5v733h-129zM360 1751q0 78 49 126 t132 48q54 0 95 -22t63 -62.5t22 -89.5q0 -77 -49.5 -125.5t-130.5 -48.5q-82 0 -131.5 49.5t-49.5 124.5zM836 1751q0 79 49.5 126.5t130.5 47.5q54 0 95 -22t63 -62.5t22 -89.5q0 -77 -49.5 -125.5t-130.5 -48.5q-80 0 -130 49t-50 125z" />
<glyph unicode="&#xdd;" horiz-adv-x="1518" d="M20 1237v211h570v-211h-115q47 -50 76 -92l237 -352l256 354q24 33 76 90h-143v211h520v-211h-113l-475 -659v-367h129v-211h-555v211h127v364l-477 662h-113zM573 1642l445 363l145 -143l-436 -342z" />
<glyph unicode="&#xde;" horiz-adv-x="1251" d="M82 0v211h141v1026h-141v211h582v-211h-142v-82h152q135 0 230 -22.5t162 -71t99.5 -122t32.5 -175.5q0 -96 -33 -174t-96.5 -134.5t-150 -86t-195.5 -29.5h-201v-129h142v-211h-582zM522 551h162q227 0 227 197q0 196 -227 196h-162v-393z" />
<glyph unicode="&#xdf;" horiz-adv-x="1554" d="M76 870v211h139q0 161 53 280t188 190t369 71q118 0 210.5 -24t156 -67.5t96.5 -104.5t33 -136q0 -102 -46.5 -172t-112 -117t-128.5 -95.5t-63 -92.5q0 -52 85.5 -87.5t184 -72t168.5 -109.5t70 -204q0 -153 -107 -259t-325 -106q-92 0 -192 12.5t-148 28.5v295h233 v-106q83 -19 123 -19q70 0 114 26.5t44 88.5q0 45 -21.5 71.5t-89.5 49.5l-154 53q-98 36 -151.5 70t-79 83t-25.5 126q0 88 47 153t139 138t128.5 110.5t36.5 91.5t-34.5 87.5t-89 49t-118.5 15.5q-110 0 -178.5 -40.5t-98.5 -114t-30 -177.5v-856h135v-211h-539v211h117 v659h-139z" />
<glyph unicode="&#xe0;" horiz-adv-x="1214" d="M86 289q0 74 29 134t77.5 101.5t108.5 63.5q78 28 183.5 38.5t279.5 10.5v51q0 118 -48.5 162.5t-154.5 44.5q-33 0 -91 -9.5t-87 -21.5v-145h-246v276q67 38 185 74.5t243 36.5q229 0 349 -95t120 -321q0 -94 -10 -479h121v-211h-361v66q0 93 15 149h-4 q-56 -127 -137 -183.5t-214 -56.5q-116 0 -197 42.5t-121 114t-40 157.5zM205 1559l145 143l445 -363l-154 -122zM373 317q0 -54 40 -92.5t117 -38.5q96 0 163 67t67 206h-80q-170 0 -238.5 -34.5t-68.5 -107.5z" />
<glyph unicode="&#xe1;" horiz-adv-x="1214" d="M86 289q0 74 29 134t77.5 101.5t108.5 63.5q78 28 183.5 38.5t279.5 10.5v51q0 118 -48.5 162.5t-154.5 44.5q-33 0 -91 -9.5t-87 -21.5v-145h-246v276q67 38 185 74.5t243 36.5q229 0 349 -95t120 -321q0 -94 -10 -479h121v-211h-361v66q0 93 15 149h-4 q-56 -127 -137 -183.5t-214 -56.5q-116 0 -197 42.5t-121 114t-40 157.5zM373 317q0 -54 40 -92.5t117 -38.5q96 0 163 67t67 206h-80q-170 0 -238.5 -34.5t-68.5 -107.5zM422 1339l444 363l146 -143l-437 -342z" />
<glyph unicode="&#xe2;" horiz-adv-x="1214" d="M86 289q0 74 29 134t77.5 101.5t108.5 63.5q78 28 183.5 38.5t279.5 10.5v51q0 118 -48.5 162.5t-154.5 44.5q-33 0 -91 -9.5t-87 -21.5v-145h-246v276q67 38 185 74.5t243 36.5q229 0 349 -95t120 -321q0 -94 -10 -479h121v-211h-361v66q0 93 15 149h-4 q-56 -127 -137 -183.5t-214 -56.5q-116 0 -197 42.5t-121 114t-40 157.5zM150 1386l370 287h176l371 -287l-166 -137l-293 232l-293 -232zM373 317q0 -54 40 -92.5t117 -38.5q96 0 163 67t67 206h-80q-170 0 -238.5 -34.5t-68.5 -107.5z" />
<glyph unicode="&#xe3;" horiz-adv-x="1214" d="M86 289q0 74 29 134t77.5 101.5t108.5 63.5q78 28 183.5 38.5t279.5 10.5v51q0 118 -48.5 162.5t-154.5 44.5q-33 0 -91 -9.5t-87 -21.5v-145h-246v276q67 38 185 74.5t243 36.5q229 0 349 -95t120 -321q0 -94 -10 -479h121v-211h-361v66q0 93 15 149h-4 q-56 -127 -137 -183.5t-214 -56.5q-116 0 -197 42.5t-121 114t-40 157.5zM188 1391q40 99 114.5 161t168.5 62q44 0 80.5 -14t71 -35t71.5 -40.5t64 -19.5q37 0 60 17.5t63 74.5l147 -106q-44 -84 -112 -140.5t-152 -56.5q-37 0 -72 14.5t-82 42t-77.5 43t-57.5 15.5 q-60 0 -113 -104zM373 317q0 -54 40 -92.5t117 -38.5q96 0 163 67t67 206h-80q-170 0 -238.5 -34.5t-68.5 -107.5z" />
<glyph unicode="&#xe4;" horiz-adv-x="1214" d="M86 289q0 74 29 134t77.5 101.5t108.5 63.5q78 28 183.5 38.5t279.5 10.5v51q0 118 -48.5 162.5t-154.5 44.5q-33 0 -91 -9.5t-87 -21.5v-145h-246v276q67 38 185 74.5t243 36.5q229 0 349 -95t120 -321q0 -94 -10 -479h121v-211h-361v66q0 93 15 149h-4 q-56 -127 -137 -183.5t-214 -56.5q-116 0 -197 42.5t-121 114t-40 157.5zM190 1448q0 78 49 126t132 48q54 0 95 -22t63 -62.5t22 -89.5q0 -77 -49.5 -125.5t-130.5 -48.5q-82 0 -131.5 49.5t-49.5 124.5zM373 317q0 -54 40 -92.5t117 -38.5q96 0 163 67t67 206h-80 q-170 0 -238.5 -34.5t-68.5 -107.5zM666 1448q0 79 49.5 126.5t130.5 47.5q54 0 95 -22t63 -62.5t22 -89.5q0 -77 -49.5 -125.5t-130.5 -48.5q-80 0 -130 49t-50 125z" />
<glyph unicode="&#xe5;" horiz-adv-x="1214" d="M86 289q0 74 29 134t77.5 101.5t108.5 63.5q78 28 183.5 38.5t279.5 10.5v51q0 118 -48.5 162.5t-154.5 44.5q-33 0 -91 -9.5t-87 -21.5v-145h-246v276q67 38 185 74.5t243 36.5q229 0 349 -95t120 -321q0 -94 -10 -479h121v-211h-361v66q0 93 15 149h-4 q-56 -127 -137 -183.5t-214 -56.5q-116 0 -197 42.5t-121 114t-40 157.5zM365 1475q0 97 67 160t176 63q74 0 129 -28.5t85 -80t30 -114.5q0 -96 -67.5 -160t-176.5 -64q-108 0 -175.5 64t-67.5 160zM373 317q0 -54 40 -92.5t117 -38.5q96 0 163 67t67 206h-80 q-170 0 -238.5 -34.5t-68.5 -107.5zM524 1475q0 -50 23 -78.5t61 -28.5q40 0 62 28.5t22 78.5q0 49 -22 77.5t-62 28.5q-38 0 -61 -28.5t-23 -77.5z" />
<glyph unicode="&#xe6;" horiz-adv-x="1821" d="M86 299q0 133 75 209t220.5 108t372.5 37q0 115 -37.5 184.5t-177.5 69.5q-64 0 -150 -24v-150h-258v295q53 23 125 41.5t140 27.5t126 9q326 0 398 -201q66 113 152.5 157t195.5 44q138 0 230.5 -53.5t144 -143t72 -198t20.5 -236.5h-711q0 -276 350 -276q170 0 326 75 l-14 -221q-156 -78 -377 -78q-194 0 -298 64t-147 182h-4q-40 -130 -134 -188t-265 -58q-177 0 -276 92t-99 232zM373 313q0 -50 35 -88.5t122 -38.5q88 0 154 58.5t66 177.5v53h-62q-166 0 -240.5 -38t-74.5 -124zM1024 653h424q0 134 -66 194t-151 60q-106 0 -156.5 -72 t-50.5 -182z" />
<glyph unicode="&#xe7;" horiz-adv-x="1024" d="M63 541q0 174 69.5 300.5t197 195.5t297.5 69t338 -51v-316h-246v144q-58 12 -98 12q-91 0 -152 -48t-90 -123t-29 -153q0 -152 83.5 -256t256.5 -104q141 0 268 59l-16 -243q-74 -26 -123.5 -36t-128.5 -16v-100q124 0 171.5 -51.5t47.5 -122.5q0 -65 -39.5 -115.5 t-111 -78t-162.5 -27.5q-97 0 -227 33l8 149q85 -29 149 -29q65 0 101.5 22t36.5 58q0 38 -32.5 55t-125.5 17v199q-142 23 -242 102t-150.5 197t-50.5 258z" />
<glyph unicode="&#xe8;" horiz-adv-x="1176" d="M63 537q0 168 64.5 296t187.5 200.5t287 72.5q263 0 390.5 -174t127.5 -457h-745q6 -129 97.5 -202.5t242.5 -73.5q96 0 172.5 16.5t173.5 56.5l-14 -229q-101 -36 -193.5 -52t-202.5 -16q-150 0 -262.5 44.5t-184 122.5t-106.5 178.5t-35 216.5zM184 1559l146 143 l444 -363l-153 -122zM373 674h436q0 75 -26.5 127t-75 79t-115.5 27q-98 0 -154 -60.5t-65 -172.5z" />
<glyph unicode="&#xe9;" horiz-adv-x="1176" d="M63 537q0 168 64.5 296t187.5 200.5t287 72.5q263 0 390.5 -174t127.5 -457h-745q6 -129 97.5 -202.5t242.5 -73.5q96 0 172.5 16.5t173.5 56.5l-14 -229q-101 -36 -193.5 -52t-202.5 -16q-150 0 -262.5 44.5t-184 122.5t-106.5 178.5t-35 216.5zM373 674h436 q0 75 -26.5 127t-75 79t-115.5 27q-98 0 -154 -60.5t-65 -172.5zM401 1339l445 363l145 -143l-436 -342z" />
<glyph unicode="&#xea;" horiz-adv-x="1176" d="M63 537q0 168 64.5 296t187.5 200.5t287 72.5q263 0 390.5 -174t127.5 -457h-745q6 -129 97.5 -202.5t242.5 -73.5q96 0 172.5 16.5t173.5 56.5l-14 -229q-101 -36 -193.5 -52t-202.5 -16q-150 0 -262.5 44.5t-184 122.5t-106.5 178.5t-35 216.5zM129 1386l371 287h176 l371 -287l-166 -137l-293 232l-293 -232zM373 674h436q0 75 -26.5 127t-75 79t-115.5 27q-98 0 -154 -60.5t-65 -172.5z" />
<glyph unicode="&#xeb;" horiz-adv-x="1176" d="M63 537q0 168 64.5 296t187.5 200.5t287 72.5q263 0 390.5 -174t127.5 -457h-745q6 -129 97.5 -202.5t242.5 -73.5q96 0 172.5 16.5t173.5 56.5l-14 -229q-101 -36 -193.5 -52t-202.5 -16q-150 0 -262.5 44.5t-184 122.5t-106.5 178.5t-35 216.5zM170 1448q0 49 22 89.5 t63 62.5t95 22t95.5 -22t63 -62.5t21.5 -89.5q0 -76 -49 -125t-131 -49q-81 0 -130.5 49.5t-49.5 124.5zM373 674h436q0 75 -26.5 127t-75 79t-115.5 27q-98 0 -154 -60.5t-65 -172.5zM645 1448q0 49 22 89.5t63 62.5t95 22t95.5 -22t63.5 -62.5t22 -89.5 q0 -77 -49.5 -125.5t-131.5 -48.5q-81 0 -130.5 49.5t-49.5 124.5z" />
<glyph unicode="&#xec;" horiz-adv-x="680" d="M-63 1559l145 143l444 -363l-153 -122zM57 870v211h426v-870h123v-211h-526v211h117v659h-140z" />
<glyph unicode="&#xed;" horiz-adv-x="680" d="M57 870v211h426v-870h123v-211h-526v211h117v659h-140zM154 1339l444 363l145 -143l-436 -342z" />
<glyph unicode="&#xee;" horiz-adv-x="680" d="M-119 1386l371 287h176l371 -287l-166 -137l-293 232l-293 -232zM57 870v211h426v-870h123v-211h-526v211h117v659h-140z" />
<glyph unicode="&#xef;" horiz-adv-x="680" d="M-78 1448q0 76 49 125t131 49q83 0 132 -48t49 -126q0 -77 -49.5 -125.5t-131.5 -48.5q-81 0 -130.5 49.5t-49.5 124.5zM57 870v211h426v-870h123v-211h-526v211h117v659h-140zM397 1448q0 76 49 125t132 49q82 0 131 -48t49 -126q0 -77 -49.5 -125.5t-130.5 -48.5 q-82 0 -131.5 49.5t-49.5 124.5z" />
<glyph unicode="&#xf0;" horiz-adv-x="1253" d="M63 530q0 158 69 289.5t196.5 209t298.5 77.5q108 0 200 -66l4 4q-28 74 -86 157t-106 120l-193 -102l-129 118l185 101q-106 76 -166 100l209 125q81 -46 172 -109l164 88l129 -120l-146 -78q94 -86 165 -195t116 -264t45 -344q0 -666 -563 -666q-262 0 -413 142.5 t-151 412.5zM375 524q0 -150 62 -231.5t190 -81.5t190 81.5t62 231.5q0 177 -60.5 261.5t-191.5 84.5q-126 0 -189 -95.5t-63 -250.5z" />
<glyph unicode="&#xf1;" horiz-adv-x="1403" d="M57 870v211h420q0 -72 -2.5 -121t-13.5 -102h4q42 112 138.5 180t232.5 68q95 0 165 -28.5t115 -82.5t67.5 -132.5t22.5 -178.5v-473h123v-211h-526v211h117v444q0 203 -187 203q-124 0 -187 -78.5t-63 -208.5v-360h123v-211h-514v211h105v659h-140zM283 1391 q41 101 114.5 162t167.5 61q44 0 80.5 -14t71 -35t71.5 -40.5t64 -19.5q25 0 43 7.5t37 28t43 56.5l147 -106q-44 -84 -112 -140.5t-152 -56.5q-37 0 -72 14.5t-82 42t-77.5 43t-57.5 15.5q-30 0 -56.5 -23.5t-55.5 -80.5z" />
<glyph unicode="&#xf2;" horiz-adv-x="1253" d="M63 530q0 158 69 289.5t196.5 209t298.5 77.5q180 0 306 -66t191.5 -194.5t65.5 -315.5q0 -160 -69.5 -286.5t-198 -197.5t-295.5 -71q-262 0 -413 142.5t-151 412.5zM223 1559l146 143l444 -363l-154 -122zM375 524q0 -150 62 -231.5t190 -81.5t190 81.5t62 231.5 q0 177 -60.5 261.5t-191.5 84.5q-126 0 -189 -95.5t-63 -250.5z" />
<glyph unicode="&#xf3;" horiz-adv-x="1253" d="M63 530q0 158 69 289.5t196.5 209t298.5 77.5q180 0 306 -66t191.5 -194.5t65.5 -315.5q0 -160 -69.5 -286.5t-198 -197.5t-295.5 -71q-262 0 -413 142.5t-151 412.5zM375 524q0 -150 62 -231.5t190 -81.5t190 81.5t62 231.5q0 177 -60.5 261.5t-191.5 84.5 q-126 0 -189 -95.5t-63 -250.5zM440 1339l445 363l145 -143l-436 -342z" />
<glyph unicode="&#xf4;" horiz-adv-x="1253" d="M63 530q0 158 69 289.5t196.5 209t298.5 77.5q180 0 306 -66t191.5 -194.5t65.5 -315.5q0 -160 -69.5 -286.5t-198 -197.5t-295.5 -71q-262 0 -413 142.5t-151 412.5zM168 1386l371 287h176l370 -287l-165 -137l-293 232l-293 -232zM375 524q0 -150 62 -231.5t190 -81.5 t190 81.5t62 231.5q0 177 -60.5 261.5t-191.5 84.5q-126 0 -189 -95.5t-63 -250.5z" />
<glyph unicode="&#xf5;" horiz-adv-x="1253" d="M63 530q0 158 69 289.5t196.5 209t298.5 77.5q180 0 306 -66t191.5 -194.5t65.5 -315.5q0 -160 -69.5 -286.5t-198 -197.5t-295.5 -71q-262 0 -413 142.5t-151 412.5zM207 1391q41 101 114.5 162t167.5 61q44 0 82 -14.5t89 -45.5t70 -40t46 -9q25 0 43 7.5t37 28 t43 56.5l148 -106q-46 -84 -113.5 -140.5t-151.5 -56.5q-37 0 -74 15.5t-79.5 41t-75.5 42t-59 16.5q-60 0 -113 -104zM375 524q0 -150 62 -231.5t190 -81.5t190 81.5t62 231.5q0 177 -60.5 261.5t-191.5 84.5q-126 0 -189 -95.5t-63 -250.5z" />
<glyph unicode="&#xf6;" horiz-adv-x="1253" d="M63 530q0 158 69 289.5t196.5 209t298.5 77.5q180 0 306 -66t191.5 -194.5t65.5 -315.5q0 -160 -69.5 -286.5t-198 -197.5t-295.5 -71q-262 0 -413 142.5t-151 412.5zM209 1448q0 49 22 89.5t63 62.5t95 22t95.5 -22t63 -62.5t21.5 -89.5q0 -76 -49 -125t-131 -49 q-81 0 -130.5 49.5t-49.5 124.5zM375 524q0 -150 62 -231.5t190 -81.5t190 81.5t62 231.5q0 177 -60.5 261.5t-191.5 84.5q-126 0 -189 -95.5t-63 -250.5zM684 1448q0 49 22 89.5t63 62.5t95 22t95.5 -22t63 -62.5t21.5 -89.5q0 -76 -49 -125t-131 -49q-81 0 -130.5 49.5 t-49.5 124.5z" />
<glyph unicode="&#xf7;" horiz-adv-x="1229" d="M96 412v223h1037v-223h-1037zM442 94q0 72 50 123t122 51q73 0 122.5 -50.5t49.5 -123.5q0 -71 -50.5 -121.5t-121.5 -50.5q-70 0 -121 51t-51 121zM442 952q0 71 50.5 121.5t121.5 50.5q47 0 86.5 -23t62.5 -62.5t23 -86.5q0 -71 -50.5 -122.5t-121.5 -51.5 q-70 0 -121 52t-51 122z" />
<glyph unicode="&#xf8;" horiz-adv-x="1253" d="M63 530q0 158 69 289.5t196.5 209t298.5 77.5q129 0 227 -33l133 211l150 -96l-125 -199q89 -76 133.5 -190t44.5 -269q0 -160 -69.5 -286.5t-198 -197.5t-295.5 -71q-126 0 -228 33l-133 -211l-149 97l125 200q-179 146 -179 436zM375 524q0 -104 28 -170l316 502 q-41 14 -92 14q-126 0 -189 -95.5t-63 -250.5zM535 225q36 -14 92 -14q128 0 190 81.5t62 231.5q0 121 -31 203z" />
<glyph unicode="&#xf9;" horiz-adv-x="1366" d="M47 870v211h430v-606q0 -87 12.5 -142.5t53.5 -88.5t123 -33q62 0 113 32.5t80.5 94t29.5 143.5v389h-135v211h422v-870h124v-211h-401q0 172 27 223h-4q-51 -128 -141 -188t-230 -60q-118 0 -199.5 46t-121.5 132t-40 201v516h-143zM281 1559l145 143l444 -363 l-153 -122z" />
<glyph unicode="&#xfa;" horiz-adv-x="1366" d="M47 870v211h430v-606q0 -87 12.5 -142.5t53.5 -88.5t123 -33q62 0 113 32.5t80.5 94t29.5 143.5v389h-135v211h422v-870h124v-211h-401q0 172 27 223h-4q-51 -128 -141 -188t-230 -60q-118 0 -199.5 46t-121.5 132t-40 201v516h-143zM498 1339l444 363l145 -143 l-436 -342z" />
<glyph unicode="&#xfb;" horiz-adv-x="1366" d="M47 870v211h430v-606q0 -87 12.5 -142.5t53.5 -88.5t123 -33q62 0 113 32.5t80.5 94t29.5 143.5v389h-135v211h422v-870h124v-211h-401q0 172 27 223h-4q-51 -128 -141 -188t-230 -60q-118 0 -199.5 46t-121.5 132t-40 201v516h-143zM205 1386l370 287h177l370 -287 l-166 -137l-292 232l-293 -232z" />
<glyph unicode="&#xfc;" horiz-adv-x="1366" d="M47 870v211h430v-606q0 -87 12.5 -142.5t53.5 -88.5t123 -33q62 0 113 32.5t80.5 94t29.5 143.5v389h-135v211h422v-870h124v-211h-401q0 172 27 223h-4q-51 -128 -141 -188t-230 -60q-118 0 -199.5 46t-121.5 132t-40 201v516h-143zM246 1448q0 79 49.5 126.5 t130.5 47.5q54 0 95.5 -22t63 -62.5t21.5 -89.5q0 -76 -49 -125t-131 -49q-80 0 -130 49t-50 125zM721 1448q0 49 22 89.5t63 62.5t95 22t95.5 -22t63 -62.5t21.5 -89.5q0 -76 -49 -125t-131 -49q-81 0 -130.5 49.5t-49.5 124.5z" />
<glyph unicode="&#xfd;" horiz-adv-x="1251" d="M20 870v211h533v-211h-111q20 -23 39 -73l135 -369q34 -93 50 -205h4q6 50 18.5 102.5t30.5 102.5l127 369q19 50 39 73h-133v211h479v-211h-98l-330 -893q-76 -207 -150 -319.5t-165 -157.5t-228 -45q-43 0 -156 25v225q91 -27 156 -27q60 0 101.5 21t78.5 74.5 t88 154.5l-409 942h-99zM440 1339l445 363l145 -143l-436 -342z" />
<glyph unicode="&#xfe;" horiz-adv-x="1327" d="M16 1380v211h451v-424q0 -21 -1.5 -55.5t-4.5 -70.5t-7 -71.5t-10 -92.5h5q101 229 364 229q118 0 212.5 -56.5t148 -169.5t53.5 -268q0 -160 -58 -306t-192.5 -238.5t-347.5 -92.5q-76 0 -162 11v-293h123v-213h-527v213h117v1687h-164zM461 250q33 -17 86 -28t96 -11 q147 0 222 105.5t75 263.5q0 80 -21.5 145t-74.5 105t-135 40q-131 0 -189.5 -77.5t-58.5 -194.5v-348z" />
<glyph unicode="&#xff;" horiz-adv-x="1251" d="M20 870v211h533v-211h-111q20 -23 39 -73l135 -369q34 -93 50 -205h4q6 50 18.5 102.5t30.5 102.5l127 369q19 50 39 73h-133v211h479v-211h-98l-330 -893q-76 -207 -150 -319.5t-165 -157.5t-228 -45q-43 0 -156 25v225q91 -27 156 -27q60 0 101.5 21t78.5 74.5 t88 154.5l-409 942h-99zM209 1448q0 49 22 89.5t63 62.5t95 22t95.5 -22t63 -62.5t21.5 -89.5q0 -76 -49 -125t-131 -49q-81 0 -130.5 49.5t-49.5 124.5zM684 1448q0 49 22 89.5t63 62.5t95 22t95.5 -22t63 -62.5t21.5 -89.5q0 -76 -49 -125t-131 -49q-81 0 -130.5 49.5 t-49.5 124.5z" />
<glyph unicode="&#x152;" horiz-adv-x="2087" d="M70 713q0 166 53 305.5t150.5 237t238.5 151t313 53.5q90 0 131 -4q82 -8 144 -8h878l13 -426h-246l-12 215h-351v-381h361v-223h-361v-422h357l16 244h246l-16 -455h-885q-82 0 -144 -6q-61 -6 -131 -6q-251 0 -421 87t-252 250t-82 388zM393 715q0 -250 133 -377 t383 -127q51 0 174 6v1016q-82 16 -170 16q-123 0 -219 -35t-163.5 -103.5t-102.5 -169t-35 -226.5z" />
<glyph unicode="&#x153;" horiz-adv-x="1896" d="M74 526q0 170 61 301.5t182 205t293 73.5q94 0 166.5 -18t127 -63t93.5 -122q53 96 142.5 149.5t201.5 53.5q147 0 254.5 -63.5t167.5 -204t60 -363.5h-719q0 -143 95 -209.5t257 -66.5q170 0 326 80l-10 -224q-55 -36 -162.5 -58t-212.5 -22t-185.5 20.5t-141.5 64.5 t-103 114q-55 -112 -155 -155.5t-226 -43.5q-164 0 -279.5 69t-174 193t-58.5 289zM360 545q0 -143 62.5 -244.5t200.5 -101.5q211 0 211 250v196q0 117 -50 177.5t-166 60.5q-133 0 -195.5 -97.5t-62.5 -240.5zM1108 674h428q-3 97 -56 159t-163 62q-101 0 -155 -62.5 t-54 -158.5z" />
<glyph unicode="&#x178;" horiz-adv-x="1518" d="M20 1237v211h570v-211h-115q47 -50 76 -92l237 -352l256 354q24 33 76 90h-143v211h520v-211h-113l-475 -659v-367h129v-211h-555v211h127v364l-477 662h-113zM342 1751q0 49 22 89.5t63 62.5t95 22t95.5 -22t63 -62.5t21.5 -89.5q0 -76 -49 -125t-131 -49 q-81 0 -130.5 49.5t-49.5 124.5zM817 1751q0 49 22 89.5t63 62.5t95 22t95.5 -22t63.5 -62.5t22 -89.5q0 -77 -49.5 -125.5t-131.5 -48.5q-81 0 -130.5 49.5t-49.5 124.5z" />
<glyph unicode="&#x2c6;" horiz-adv-x="680" d="M-119 1386l371 287h176l371 -287l-166 -137l-293 232l-293 -232z" />
<glyph unicode="&#x2dc;" horiz-adv-x="680" d="M-80 1391q40 99 114.5 161t168.5 62q44 0 80.5 -14t88.5 -45.5t71 -40.5t46 -9q25 0 42.5 7.5t38 29.5t42.5 55l148 -106q-44 -84 -112 -140.5t-152 -56.5q-37 0 -72 14.5t-82 42t-77.5 43t-57.5 15.5q-60 0 -113 -104z" />
<glyph unicode="&#x2000;" horiz-adv-x="1002" />
<glyph unicode="&#x2001;" horiz-adv-x="2005" />
<glyph unicode="&#x2002;" horiz-adv-x="1002" />
<glyph unicode="&#x2003;" horiz-adv-x="2005" />
<glyph unicode="&#x2004;" horiz-adv-x="668" />
<glyph unicode="&#x2005;" horiz-adv-x="501" />
<glyph unicode="&#x2006;" horiz-adv-x="334" />
<glyph unicode="&#x2007;" horiz-adv-x="334" />
<glyph unicode="&#x2008;" horiz-adv-x="250" />
<glyph unicode="&#x2009;" horiz-adv-x="401" />
<glyph unicode="&#x200a;" horiz-adv-x="111" />
<glyph unicode="&#x2010;" horiz-adv-x="872" d="M137 492v249h598v-249h-598z" />
<glyph unicode="&#x2011;" horiz-adv-x="872" d="M137 492v249h598v-249h-598z" />
<glyph unicode="&#x2012;" horiz-adv-x="872" d="M137 492v249h598v-249h-598z" />
<glyph unicode="&#x2013;" horiz-adv-x="1024" d="M0 504v225h1024v-225h-1024z" />
<glyph unicode="&#x2014;" horiz-adv-x="2048" d="M0 504v225h2048v-225h-2048z" />
<glyph unicode="&#x2018;" d="M78 1108q0 304 317 514l133 -129q-94 -74 -128.5 -134.5t-34.5 -121.5q0 -45 28 -84t56 -77.5t28 -82.5q0 -53 -23 -91t-62 -58.5t-89 -20.5q-105 0 -165 85.5t-60 199.5z" />
<glyph unicode="&#x2019;" d="M78 952q96 76 130 135t34 121q0 37 -15 65t-43 62t-41.5 58t-13.5 59q0 78 50 124t124 46q71 0 122 -40.5t77 -106t26 -140.5q0 -157 -79 -282t-238 -230z" />
<glyph unicode="&#x201a;" d="M78 -334q95 77 129.5 136.5t34.5 121.5q0 45 -28 83.5t-56.5 77t-28.5 83.5q0 77 49.5 123.5t124.5 46.5q71 0 122 -40.5t77 -106t26 -140.5q0 -157 -79.5 -283t-237.5 -229z" />
<glyph unicode="&#x201c;" horiz-adv-x="1100" d="M68 1108q0 304 317 514l133 -129q-93 -73 -128.5 -134t-35.5 -122q0 -45 28.5 -84t56.5 -77.5t28 -82.5q0 -53 -23 -91t-62 -58.5t-89 -20.5q-104 0 -164.5 86t-60.5 199zM582 1108q0 304 317 514l133 -129q-93 -73 -128.5 -134t-35.5 -122q0 -45 28.5 -84t56.5 -77.5 t28 -82.5q0 -53 -23 -91t-62 -58.5t-89 -20.5q-104 0 -164.5 86t-60.5 199z" />
<glyph unicode="&#x201d;" horiz-adv-x="1100" d="M68 952q94 75 128.5 134.5t34.5 121.5q0 36 -15 63.5t-42.5 62.5t-41 59t-13.5 59q0 78 50 124t124 46q71 0 122 -40.5t77 -106t26 -140.5q0 -157 -79 -282t-238 -230zM582 952q94 75 128.5 134.5t34.5 121.5q0 36 -15 63.5t-42.5 62.5t-41 59t-13.5 59q0 78 50 124 t124 46q71 0 122 -40.5t77 -106t26 -140.5q0 -157 -79 -282t-238 -230z" />
<glyph unicode="&#x201e;" horiz-adv-x="1100" d="M68 -334q63 51 100 96.5t50 83.5t13 78q0 45 -28 83.5l-56 77t-28 83.5q0 77 49.5 123.5t124.5 46.5q71 0 122 -40.5t77 -106t26 -140.5q0 -157 -79.5 -283t-237.5 -229zM582 -334q63 51 100 96.5t50 83.5t13 78q0 45 -28 83.5l-56 77t-28 83.5q0 77 49.5 123.5 t124.5 46.5q71 0 122 -40.5t77 -106t26 -140.5q0 -157 -79.5 -283t-237.5 -229z" />
<glyph unicode="&#x2022;" horiz-adv-x="1024" d="M154 725q0 96 48 180t130.5 132t179.5 48t179.5 -48t130.5 -132t48 -180q0 -97 -47.5 -181t-130.5 -133t-180 -49t-180 49t-130.5 133t-47.5 181z" />
<glyph unicode="&#x2026;" horiz-adv-x="2048" d="M150 152q0 88 53.5 137t138.5 49q86 0 139.5 -49t53.5 -137q0 -81 -52 -134t-141 -53q-88 0 -140 53t-52 134zM831 152q0 88 53.5 137t139.5 49t139.5 -49t53.5 -137q0 -81 -52 -134t-141 -53t-141 53.5t-52 133.5zM1513 152q0 88 53.5 137t139.5 49t139 -49t53 -137 q0 -81 -51 -134t-141 -53q-89 0 -141 53.5t-52 133.5z" />
<glyph unicode="&#x202f;" horiz-adv-x="401" />
<glyph unicode="&#x2039;" d="M63 537v159l277 328l203 -172l-211 -236l211 -235l-203 -172z" />
<glyph unicode="&#x203a;" d="M63 381l211 235l-211 236l203 172l277 -328v-159l-277 -328z" />
<glyph unicode="&#x205f;" horiz-adv-x="501" />
<glyph unicode="&#x2122;" horiz-adv-x="2028" d="M4 1307v141h680v-141h-248v-719h-184v719h-248zM831 588v860h277l215 -612h4l215 612h277v-860h-185v661h-4l-235 -661h-140l-235 661h-4v-661h-185z" />
<glyph unicode="&#xe000;" horiz-adv-x="1080" d="M0 0v1080h1080v-1080h-1080z" />
</font>
</defs>
</svg>
